<?xml version="1.0" standalone="no"?>
<!DOCTYPE svg PUBLIC "-//W3C//DTD SVG 20010904//EN"
 "http://www.w3.org/TR/2001/REC-SVG-20010904/DTD/svg10.dtd">
<svg version="1.0" xmlns="http://www.w3.org/2000/svg"
 width="960.000000pt" height="960.000000pt" viewBox="0 0 960.000000 960.000000"
 preserveAspectRatio="xMidYMid meet">
<metadata>
Created by potrace 1.11, written by Peter Selinger 2001-2013
</metadata>
<g transform="translate(0.000000,960.000000) scale(0.100000,-0.100000)"
fill="#000000" stroke="none">
<path d="M2722 9235 c-29 -7 -63 -22 -76 -34 -31 -29 -66 -102 -66 -137 1 -36
31 -99 48 -100 6 -1 17 -2 22 -3 6 0 10 -9 10 -18 -1 -17 -1 -17 -14 -1 -11
15 -16 16 -31 4 -25 -18 -13 -50 15 -41 15 5 18 3 14 -9 -8 -22 -37 -20 -58 3
-13 15 -15 24 -6 46 11 28 -2 85 -19 85 -4 0 -38 -63 -76 -140 -64 -130 -77
-170 -44 -138 14 14 33 17 42 8 3 -3 7 -26 10 -52 3 -33 1 -51 -9 -59 -17 -14
-22 -3 -26 54 -3 36 -4 37 -22 24 -19 -14 -19 -16 -2 -62 10 -26 34 -63 52
-82 41 -41 42 -53 9 -53 -14 0 -25 5 -25 10 0 15 -26 12 -40 -5 -11 -13 -11
-20 0 -40 12 -22 9 -27 -30 -69 -24 -25 -49 -55 -57 -66 -18 -25 -24 -25 -50
0 l-22 19 -20 -62 c-88 -268 -58 -399 66 -285 37 35 138 186 138 207 0 4 12
22 28 42 15 20 27 40 27 45 0 5 14 26 31 47 18 22 27 42 23 49 -4 7 -3 10 1 5
10 -9 55 31 55 49 0 7 8 19 18 26 10 7 58 66 107 132 49 65 95 121 102 123 6
3 32 -7 57 -22 25 -15 51 -23 57 -19 8 4 9 3 5 -4 -4 -7 -1 -12 6 -12 41 -1
38 -17 -26 -141 -81 -156 -130 -297 -195 -569 -29 -118 -61 -233 -73 -255
-108 -208 -115 -224 -113 -256 2 -19 -4 -42 -13 -52 -13 -14 -16 -59 -17 -283
-1 -146 2 -267 5 -269 15 -9 599 148 805 217 212 71 205 67 207 136 l1 57 6
-57 6 -56 390 157 c215 86 395 159 400 163 6 3 25 9 44 13 71 15 277 109 671
305 206 102 519 248 616 286 43 18 76 40 107 73 67 71 70 82 40 117 -13 16
-32 42 -40 58 -18 35 -23 118 -6 123 26 9 -34 108 -107 180 -49 47 -87 65
-264 127 -99 35 -133 43 -148 35 -10 -5 -22 -8 -26 -6 -4 3 -36 1 -70 -4 -35
-5 -69 -6 -75 -2 -7 4 -16 8 -22 8 -5 0 -10 8 -10 17 0 9 -11 28 -25 43 -13
14 -24 37 -25 51 0 23 -15 34 -135 96 l-135 70 -95 -11 c-132 -14 -188 -35
-192 -69 -6 -54 -118 -52 -118 3 0 23 34 65 52 65 6 0 26 -5 44 -12 28 -10 37
-8 78 16 47 28 71 58 63 80 -3 7 -35 21 -71 30 l-65 16 -53 -31 c-64 -38 -121
-59 -159 -59 -16 0 -29 -4 -29 -10 0 -12 -90 -13 -109 -1 -7 5 -10 14 -7 20 4
6 0 21 -8 33 -9 12 -16 33 -16 45 0 23 0 23 -164 23 -164 0 -164 0 -180 -25
-22 -33 -32 -32 -45 5 -10 29 -12 30 -73 30 -47 0 -69 -5 -88 -20 -14 -11 -20
-20 -15 -20 6 -1 34 -2 63 -3 48 -2 71 -15 72 -38 0 -7 -129 -19 -207 -19 -29
0 -53 4 -53 8 0 10 67 65 95 77 23 10 -108 22 -267 24 l-97 1 5 -30 c8 -38
-14 -73 -56 -90 -22 -9 -33 -22 -37 -42 -9 -45 -57 -63 -87 -33 -30 30 6 75
61 75 32 0 79 22 95 45 11 15 9 38 -6 57 -12 16 -17 16 -90 -4 -61 -16 -79
-26 -86 -43 -18 -46 -89 -72 -118 -43 -50 50 49 120 106 75 7 -6 12 -6 12 0 0
5 6 10 13 11 6 0 35 7 62 15 l50 15 -125 0 c-69 0 -149 -5 -178 -13z m846
-273 c4 -27 -23 -62 -48 -62 -9 0 -25 9 -35 20 -15 17 -31 20 -99 20 -82 0
-150 -13 -161 -30 -10 -16 18 -49 48 -56 19 -4 34 -1 46 10 21 19 40 20 64 2
27 -21 21 -53 -12 -71 -28 -14 -31 -14 -48 9 -11 13 -33 27 -50 30 -19 5 -43
22 -63 49 -19 23 -30 39 -25 34 5 -4 15 -1 24 7 26 23 95 37 182 35 67 -1 83
2 91 15 7 12 20 16 46 14 30 -2 38 -7 40 -26z m262 -77 c-10 -12 -9 -16 4 -21
9 -3 16 -10 16 -15 0 -14 -26 -10 -40 6 -10 13 -9 19 5 35 21 23 34 18 15 -5z
m85 15 c7 -11 -12 -50 -24 -50 -4 0 -8 13 -7 30 1 29 18 40 31 20z m811 -26
c43 -14 100 -37 125 -51 58 -31 139 -105 139 -125 0 -14 -15 -30 -91 -93 -40
-33 -183 -125 -195 -125 -7 0 -14 18 -16 39 -3 39 -2 41 57 80 33 23 71 50 85
62 l25 21 -40 34 c-22 18 -56 40 -75 48 -19 8 -56 24 -82 35 -30 12 -46 25
-43 33 18 50 25 68 28 68 3 0 40 -12 83 -26z m-1656 -27 c0 -2 -16 -18 -35
-37 -39 -37 -48 -27 -12 14 18 21 47 35 47 23z m1397 -19 c18 -13 33 -28 33
-33 0 -6 -23 -28 -50 -49 -60 -46 -145 -133 -145 -148 0 -7 16 -16 35 -20 19
-5 72 -20 118 -35 75 -23 82 -27 76 -47 -14 -45 -24 -66 -30 -66 -4 0 -48 16
-98 36 -50 20 -127 43 -171 51 -44 8 -84 18 -89 23 -23 22 230 310 273 310 8
0 30 -10 48 -22z m-1132 -188 c0 -23 -4 -25 -45 -28 -92 -5 -90 -3 -90 -92 l0
-80 -30 0 -30 0 0 93 c0 50 4 98 8 104 9 14 100 32 152 30 30 -2 35 -5 35 -27z
m2153 -61 c57 -19 62 -23 62 -49 0 -16 -5 -32 -10 -35 -6 -4 -43 0 -83 9 -126
27 -136 28 -151 9 -8 -10 -50 -63 -93 -118 -100 -126 -105 -130 -144 -119
l-30 9 104 125 c156 189 158 190 226 190 32 0 85 -9 119 -21z m-2063 -49 c10
-30 3 -149 -9 -166 -14 -18 -151 -40 -191 -30 -20 5 -26 12 -23 28 4 26 31 36
106 37 l52 1 0 68 c0 38 3 72 7 75 14 15 52 6 58 -13z m460 -80 c4 -6 15 -10
25 -8 27 4 26 1 -6 -79 -14 -37 -56 -53 -86 -34 -11 7 -18 7 -18 1 0 -5 -9
-10 -20 -10 -24 0 -26 15 -4 24 11 4 14 13 11 27 -3 12 -1 31 5 44 16 36 78
59 93 35z m1655 -90 c10 -6 11 -13 5 -17 -11 -8 -62 -83 -159 -235 -30 -49
-60 -88 -66 -88 -6 0 -26 11 -43 24 -18 13 -65 40 -104 60 -40 20 -73 40 -73
44 0 13 55 62 70 62 7 0 39 -23 71 -50 58 -50 58 -50 70 -28 16 30 160 221
173 230 15 11 38 10 56 -2z m-1010 -65 c6 -15 20 -27 37 -31 45 -11 63 -33 63
-78 l0 -41 62 -22 c43 -15 68 -19 79 -12 41 21 76 -29 43 -62 -24 -23 -58 -16
-72 16 -8 17 -27 29 -67 40 -53 16 -56 16 -80 -3 -22 -17 -31 -19 -63 -10 -20
6 -50 17 -66 25 -20 11 -31 12 -39 4 -16 -16 -42 -14 -57 4 -10 12 -10 21 -1
41 14 31 51 30 66 -3 5 -12 16 -24 25 -27 93 -34 104 -35 127 -20 19 12 23 24
23 64 0 48 -1 50 -37 65 -22 10 -49 13 -70 9 -28 -5 -34 -3 -42 17 -12 34 -3
49 30 49 22 0 32 -6 39 -25z m-1412 -227 c30 -30 -1 -88 -48 -88 -19 0 -33 8
-45 26 -15 23 -15 27 0 50 17 27 71 34 93 12z m-151 -44 c-3 -3 -12 -4 -19 -1
-8 3 -5 6 6 6 11 1 17 -2 13 -5z m1429 -119 c30 -32 32 -40 30 -91 -1 -48 -6
-60 -30 -81 -26 -22 -28 -28 -21 -70 4 -25 9 -52 12 -59 8 -21 40 -17 93 12
55 30 71 65 45 94 -28 30 -27 64 0 95 21 21 31 26 53 20 31 -8 42 -21 42 -54
0 -27 -26 -61 -47 -61 -9 0 -13 -13 -13 -40 0 -43 -19 -63 -75 -76 -16 -4 -39
-11 -50 -17 -11 -6 -36 -12 -56 -13 l-37 -3 -6 69 c-7 65 -8 69 -36 75 -79 17
-105 103 -54 178 45 67 100 75 150 22z m-950 -100 c-4 -19 -11 -37 -16 -40
-17 -10 -60 7 -60 24 1 15 30 63 30 47 0 -4 10 0 22 9 27 18 33 8 24 -40z
m186 -66 c13 -5 30 -24 37 -40 11 -26 11 -32 -4 -49 -10 -11 -26 -22 -36 -25
-11 -4 -19 -14 -20 -23 0 -10 -3 -12 -5 -5 -3 7 -12 9 -21 6 -12 -5 -14 -1 -8
16 4 13 1 27 -9 36 -12 12 -13 22 -4 45 5 17 16 30 24 30 8 0 14 5 14 10 0 13
4 13 32 -1z m-338 -47 c-5 -19 -13 -22 -51 -22 l-44 0 23 24 c23 25 57 37 70
27 4 -4 5 -16 2 -29z m741 -17 c22 -26 35 -51 31 -60 -9 -23 -23 -18 -47 18
-12 17 -29 37 -37 44 -15 12 -10 43 7 43 5 0 26 -20 46 -45z m-135 -44 c0 -12
-20 -25 -27 -18 -7 7 6 27 18 27 5 0 9 -4 9 -9z m-449 -31 c11 -7 19 -21 19
-37 l0 -26 -23 21 c-31 30 -44 28 -52 -8 -8 -37 -25 -40 -25 -4 0 56 34 79 81
54z m456 -82 l33 -31 40 19 c22 10 40 22 40 27 0 4 9 7 20 7 44 0 -1 -61 -49
-66 -9 0 -32 -4 -51 -8 -30 -6 -40 -2 -73 25 -30 25 -35 34 -26 45 17 21 30
17 66 -18z m-1266 -21 c-10 -9 -11 -8 -5 6 3 10 9 15 12 12 3 -3 0 -11 -7 -18z
m-41 -27 c0 -5 -5 -10 -11 -10 -5 0 -7 5 -4 10 3 6 8 10 11 10 2 0 4 -4 4 -10z
m974 -42 c-7 -53 -14 -76 -14 -45 0 12 -9 17 -30 17 -35 0 -81 20 -74 31 2 5
16 4 30 -1 38 -15 54 -12 54 8 0 19 18 42 32 42 5 0 6 -24 2 -52z m-917 -100
c-3 -8 -6 -5 -6 6 -1 11 2 17 5 13 3 -3 4 -12 1 -19z m209 -19 c4 -7 0 -9 -14
-5 -14 5 -25 0 -36 -16 -15 -22 -16 -22 -16 -2 0 11 3 24 7 27 10 11 51 8 59
-4z"/>
<path d="M3505 8960 c-8 -14 3 -30 21 -30 8 0 14 9 14 20 0 21 -24 28 -35 10z"/>
<path d="M3335 8840 c-9 -15 4 -30 26 -30 22 0 24 11 7 28 -15 15 -25 15 -33
2z"/>
<path d="M3814 8416 c-9 -24 0 -58 19 -70 27 -17 52 4 52 45 0 31 -3 34 -33
37 -21 2 -34 -2 -38 -12z"/>
<path d="M4474 8299 c-7 -12 15 -41 27 -33 14 8 11 31 -6 37 -8 4 -17 2 -21
-4z"/>
<path d="M4387 8150 c-4 -17 -1 -21 16 -18 25 3 30 31 6 36 -10 2 -19 -6 -22
-18z"/>
<path d="M4765 8079 c-9 -13 -5 -16 20 -21 12 -2 21 3 23 15 4 19 -32 25 -43
6z"/>
<path d="M3044 8045 c-9 -21 15 -47 40 -43 24 4 34 37 14 49 -21 14 -48 10
-54 -6z"/>
<path d="M4281 7864 c-26 -33 -28 -79 -3 -90 52 -23 102 -1 102 45 0 66 -61
93 -99 45z"/>
<path d="M4535 7769 c-4 -11 -4 -23 0 -27 9 -9 40 13 43 32 5 24 -35 20 -43
-5z"/>
<path d="M3590 7695 c-16 -19 -4 -35 26 -35 27 0 28 3 14 31 -13 23 -23 24
-40 4z"/>
<path d="M4130 9200 c0 -22 1 -22 83 -20 66 2 130 23 102 34 -9 3 -55 6 -101
6 -77 0 -84 -2 -84 -20z"/>
<path d="M2796 9181 c-22 -24 -13 -41 20 -41 29 0 54 21 54 44 0 23 -53 20
-74 -3z"/>
<path d="M4588 9114 c-13 -28 -13 -34 -2 -30 7 3 37 8 65 12 l52 7 -44 23
c-24 13 -46 23 -49 23 -3 0 -12 -16 -22 -35z"/>
<path d="M2944 9079 c-3 -6 -1 -16 5 -22 13 -13 42 0 49 21 5 15 -44 16 -54 1z"/>
<path d="M4372 9038 c-35 -35 11 -82 54 -53 28 18 30 28 8 49 -18 19 -45 21
-62 4z"/>
<path d="M5040 8911 c0 -29 83 -74 156 -86 73 -11 57 11 -39 54 -93 42 -117
48 -117 32z"/>
<path d="M2381 8666 c-12 -30 -6 -92 11 -102 5 -3 15 0 23 6 12 10 12 17 0 48
-8 21 -16 46 -18 57 -3 17 -5 16 -16 -9z"/>
<path d="M5800 8433 c0 -32 40 -98 69 -116 31 -18 61 -22 61 -8 0 18 -106 141
-122 141 -4 0 -8 -8 -8 -17z"/>
<path d="M5931 8269 c-13 -10 -31 -19 -40 -20 -15 0 -99 -99 -84 -99 14 0 203
75 203 80 0 4 -12 18 -27 32 -28 26 -28 26 -52 7z"/>
<path d="M6750 7671 c0 -5 -17 -9 -37 -9 -21 0 -56 -5 -78 -11 -98 -24 -139
-38 -128 -42 7 -2 -24 -5 -68 -6 -44 -1 -84 -5 -90 -9 -6 -3 -41 -8 -78 -9
-36 -2 -122 -8 -191 -15 -69 -6 -156 -13 -195 -15 -161 -8 -488 -34 -525 -40
-14 -3 -56 -7 -95 -10 -96 -8 -497 -64 -515 -72 -8 -4 -22 -7 -30 -8 -16 -1
-177 -37 -275 -62 -33 -8 -78 -19 -100 -24 -86 -19 -228 -60 -240 -68 -5 -4
-20 -8 -31 -9 -12 0 -61 -13 -110 -27 -244 -73 -319 -96 -464 -144 -65 -21
-192 -61 -285 -89 -27 -8 -61 -19 -75 -25 -14 -5 -38 -11 -54 -12 -15 -2 -38
-7 -50 -13 -35 -17 -149 -52 -169 -52 -10 0 -15 -4 -12 -10 3 -5 -2 -9 -12 -8
-30 4 -235 -60 -228 -71 2 -5 -6 -6 -19 -4 -13 3 -39 -2 -57 -10 -19 -8 -74
-27 -124 -43 -49 -15 -101 -33 -115 -40 -14 -7 -59 -26 -100 -43 -41 -16 -93
-39 -115 -49 -159 -77 -166 -81 -283 -150 -52 -30 -108 -66 -125 -81 -18 -15
-42 -34 -55 -43 -43 -29 -112 -99 -107 -109 3 -5 0 -7 -7 -4 -14 5 -34 -18
-73 -89 -21 -37 -25 -58 -23 -99 2 -31 8 -52 15 -52 6 0 15 -4 20 -9 5 -5 3
-6 -4 -2 -7 4 -13 3 -13 -3 0 -28 136 -98 168 -86 7 3 10 0 6 -6 -4 -6 1 -9
12 -8 11 2 26 -1 34 -6 8 -5 32 -12 55 -16 22 -4 63 -14 90 -21 59 -15 810
-16 885 -1 54 10 59 26 31 85 -11 24 -23 60 -26 81 -4 24 -10 35 -17 31 -7 -5
-9 2 -4 20 4 15 3 25 -1 23 -4 -3 -9 11 -11 31 -1 21 -9 58 -17 83 -9 26 -17
62 -19 81 -2 19 -5 39 -8 44 -10 17 -19 101 -12 118 4 10 18 22 31 27 13 5 21
13 18 19 -3 6 1 7 10 4 10 -4 27 3 43 18 15 14 43 34 62 44 19 10 41 25 49 32
13 12 66 37 66 31 0 -1 19 10 42 24 24 15 47 27 52 27 20 0 80 33 75 42 -3 4
1 5 9 2 8 -3 43 8 78 24 35 16 115 51 177 77 61 26 112 51 112 55 0 4 7 11 16
14 10 4 13 2 8 -6 -4 -7 8 -3 27 8 19 11 55 26 82 33 26 8 52 21 57 30 9 14
11 14 20 1 9 -13 12 -13 21 3 5 9 19 17 29 17 11 0 29 8 40 17 18 16 18 19 4
43 l-15 25 24 -26 c26 -29 52 -25 42 7 -6 18 -6 18 8 1 14 -17 17 -17 46 -2
17 8 31 13 31 11 0 -3 21 5 48 18 26 13 74 31 107 41 32 9 68 23 79 31 11 8
28 14 37 14 9 0 52 12 95 26 44 14 86 27 95 29 9 2 25 8 35 14 11 5 39 14 62
19 40 9 43 9 39 -8 -2 -10 -2 -22 2 -27 6 -10 102 -45 107 -40 2 2 -3 25 -11
52 -16 51 -11 64 26 65 8 0 26 11 39 25 13 14 28 25 34 25 6 0 4 -5 -4 -11
-11 -8 -5 -9 25 -4 22 4 42 10 45 13 3 4 14 7 25 8 30 0 109 15 120 22 6 4 26
7 45 8 19 1 64 7 100 13 36 6 92 11 125 12 43 0 54 3 40 9 -19 8 -19 9 3 9 12
1 22 -2 22 -6 0 -13 194 -3 202 10 5 8 8 8 8 1 0 -8 84 -13 268 -18 147 -4
283 -11 303 -17 20 -5 94 -10 163 -11 86 -1 125 -5 123 -12 -2 -6 -11 -10 -21
-8 -9 2 -16 -4 -16 -13 0 -8 -4 -15 -9 -15 -5 0 -5 -16 -1 -37 5 -21 11 -51
14 -67 3 -16 11 -33 18 -38 10 -6 10 -8 1 -8 -7 0 -13 -6 -13 -14 0 -11 14 -9
60 11 33 15 60 30 60 35 0 4 8 8 18 8 9 0 49 15 87 34 39 19 131 60 205 91
225 96 306 139 283 153 -8 5 -7 12 4 27 15 20 15 20 8 -2 -3 -13 -2 -23 3 -23
12 0 52 44 52 57 0 6 5 13 12 15 8 3 9 11 3 24 -4 10 -9 23 -9 29 -2 15 -49
35 -71 29 -16 -4 -17 -3 -5 5 20 14 11 20 -39 25 -23 2 -44 6 -48 10 -10 9
-113 7 -113 -3z m-33 -27 c-3 -3 -12 -4 -19 -1 -8 3 -5 6 6 6 11 1 17 -2 13
-5z m269 -32 c15 -9 11 -10 -21 -5 -70 11 -95 21 -44 18 26 -1 55 -7 65 -13z
m-383 1 c-7 -2 -19 -2 -25 0 -7 3 -2 5 12 5 14 0 19 -2 13 -5z m364 -55 c-3
-7 -5 -2 -5 12 0 14 2 19 5 13 2 -7 2 -19 0 -25z m-654 -15 c-13 -2 -35 -2
-50 0 -16 2 -5 4 22 4 28 0 40 -2 28 -4z m-956 -59 c-3 -3 -12 -4 -19 -1 -8 3
-5 6 6 6 11 1 17 -2 13 -5z m1558 -3 c3 -5 1 -12 -5 -16 -5 -3 -10 1 -10 9 0
18 6 21 15 7z m-1940 -31 c-11 -5 -27 -9 -35 -9 -9 0 -8 4 5 9 11 5 27 9 35 9
9 0 8 -4 -5 -9z m332 4 c-3 -3 -12 -4 -19 -1 -8 3 -5 6 6 6 11 1 17 -2 13 -5z
m83 -24 c0 -5 -4 -10 -10 -10 -5 0 -10 5 -10 10 0 6 5 10 10 10 6 0 10 -4 10
-10z m380 0 c0 -5 -5 -10 -11 -10 -5 0 -7 5 -4 10 3 6 8 10 11 10 2 0 4 -4 4
-10z m-777 -7 c-7 -2 -19 -2 -25 0 -7 3 -2 5 12 5 14 0 19 -2 13 -5z m240 0
c-7 -2 -19 -2 -25 0 -7 3 -2 5 12 5 14 0 19 -2 13 -5z m597 -13 c0 -11 -4 -20
-9 -20 -5 0 -7 9 -4 20 3 11 7 20 9 20 2 0 4 -9 4 -20z m98 13 c-10 -2 -26 -2
-35 0 -10 3 -2 5 17 5 19 0 27 -2 18 -5z m896 -7 c-10 -8 -21 -12 -24 -10 -5
6 21 24 34 24 6 0 1 -6 -10 -14z m-1547 -12 c-3 -3 -12 -4 -19 -1 -8 3 -5 6 6
6 11 1 17 -2 13 -5z m523 -4 c0 -5 -4 -10 -10 -10 -5 0 -10 5 -10 10 0 6 5 10
10 10 6 0 10 -4 10 -10z m-1133 -6 c-3 -3 -12 -4 -19 -1 -8 3 -5 6 6 6 11 1
17 -2 13 -5z m68 -4 c-11 -5 -27 -9 -35 -9 -9 0 -8 4 5 9 11 5 27 9 35 9 9 0
8 -4 -5 -9z m1028 3 c-7 -2 -21 -2 -30 0 -10 3 -4 5 12 5 17 0 24 -2 18 -5z
m-1096 -19 c-3 -3 -12 -4 -19 -1 -8 3 -5 6 6 6 11 1 17 -2 13 -5z m58 -14 c3
-5 1 -10 -4 -10 -6 0 -11 5 -11 10 0 6 2 10 4 10 3 0 8 -4 11 -10z m102 -6
c-3 -3 -12 -4 -19 -1 -8 3 -5 6 6 6 11 1 17 -2 13 -5z m1573 -14 c0 -5 -14
-10 -31 -10 -17 0 -28 4 -24 10 3 6 17 10 31 10 13 0 24 -4 24 -10z m120 -10
c0 -5 -9 -10 -20 -10 -11 0 -20 5 -20 10 0 6 9 10 20 10 11 0 20 -4 20 -10z
m95 -10 c-3 -4 -16 -10 -30 -12 -19 -4 -25 -1 -25 12 0 13 7 16 30 12 16 -2
28 -8 25 -12z m-2035 -4 c0 -3 -4 -8 -10 -11 -5 -3 -10 -1 -10 4 0 6 5 11 10
11 6 0 10 -2 10 -4z m-297 -23 c-7 -2 -21 -2 -30 0 -10 3 -4 5 12 5 17 0 24
-2 18 -5z m122 -23 c-3 -5 -12 -10 -18 -10 -7 0 -6 4 3 10 19 12 23 12 15 0z
m85 -3 c0 -9 -11 -12 -37 -8 l-38 5 35 7 c19 3 36 7 38 8 1 0 2 -5 2 -12z m30
3 c0 -5 -4 -10 -10 -10 -5 0 -10 5 -10 10 0 6 5 10 10 10 6 0 10 -4 10 -10z
m-93 -26 c-3 -3 -12 -4 -19 -1 -8 3 -5 6 6 6 11 1 17 -2 13 -5z m-50 -10 c-3
-3 -12 -4 -19 -1 -8 3 -5 6 6 6 11 1 17 -2 13 -5z m2043 2 c0 -3 -4 -8 -10
-11 -5 -3 -10 -1 -10 4 0 6 5 11 10 11 6 0 10 -2 10 -4z m-2417 -20 c4 -10 1
-13 -8 -9 -8 3 -12 9 -9 14 7 12 11 11 17 -5z m80 -1 c-3 -9 -8 -14 -10 -11
-3 3 -2 9 2 15 9 16 15 13 8 -4z m135 -35 c-14 -4 -32 -11 -40 -16 -10 -6 -10
-4 1 9 7 9 25 17 40 16 l26 -1 -27 -8z m-533 -50 c3 -6 -1 -7 -9 -4 -18 7 -21
14 -7 14 6 0 13 -4 16 -10z m25 -135 c0 -8 -4 -15 -10 -15 -5 0 -10 7 -10 15
0 8 5 15 10 15 6 0 10 -7 10 -15z m-685 -95 c13 -6 15 -9 5 -9 -8 0 -22 4 -30
9 -18 12 -2 12 25 0z m355 -44 c0 -3 -4 -8 -10 -11 -5 -3 -10 -1 -10 4 0 6 5
11 10 11 6 0 10 -2 10 -4z m-830 -86 c-8 -5 -22 -9 -30 -9 -10 0 -8 3 5 9 27
12 43 12 25 0z m7 -36 c-3 -3 -12 -4 -19 -1 -8 3 -5 6 6 6 11 1 17 -2 13 -5z
m268 -104 c3 -5 1 -10 -4 -10 -6 0 -11 5 -11 10 0 6 2 10 4 10 3 0 8 -4 11
-10z m-1062 -205 c-3 -9 -8 -14 -10 -11 -3 3 -2 9 2 15 9 16 15 13 8 -4z m44
-21 c-3 -3 -12 -4 -19 -1 -8 3 -5 6 6 6 11 1 17 -2 13 -5z m770 -76 c-3 -8 -6
-5 -6 6 -1 11 2 17 5 13 3 -3 4 -12 1 -19z m-1067 -118 c0 -5 -2 -10 -4 -10
-3 0 -8 5 -11 10 -3 6 -1 10 4 10 6 0 11 -4 11 -10z m1090 -5 c0 -8 -4 -15
-10 -15 -5 0 -7 7 -4 15 4 8 8 15 10 15 2 0 4 -7 4 -15z m-1163 -117 c-3 -8
-6 -5 -6 6 -1 11 2 17 5 13 3 -3 4 -12 1 -19z m1243 -84 c0 -8 -19 -13 -24 -6
-3 5 1 9 9 9 8 0 15 -2 15 -3z m-1170 -14 c13 -8 13 -11 1 -19 -8 -5 -10 -14
-5 -22 6 -11 4 -11 -10 0 -13 11 -14 16 -4 23 10 6 10 10 -2 18 -8 5 -10 10
-5 10 6 0 17 -5 25 -10z m167 -106 c-3 -3 -12 -4 -19 -1 -8 3 -5 6 6 6 11 1
17 -2 13 -5z m70 -10 c-3 -3 -12 -4 -19 -1 -8 3 -5 6 6 6 11 1 17 -2 13 -5z"/>
<path d="M6205 7330 c3 -5 8 -10 11 -10 2 0 4 5 4 10 0 6 -5 10 -11 10 -5 0
-7 -4 -4 -10z"/>
<path d="M6122 6924 c-13 -9 -21 -22 -18 -30 5 -14 -8 -392 -19 -527 -7 -91 9
-78 24 20 7 43 17 103 22 133 15 84 39 309 39 368 0 57 -9 64 -48 36z"/>
<path d="M5447 6919 c-9 -6 -15 -14 -12 -20 3 -5 0 -6 -8 -3 -21 8 -83 -73
-111 -144 -66 -168 -86 -368 -52 -515 19 -80 34 -113 71 -150 34 -33 59 -34
99 -3 35 26 111 63 171 82 22 7 33 13 25 13 -8 1 -37 -6 -63 -14 l-48 -14 27
32 c31 36 65 108 88 186 l16 53 -60 -4 c-45 -3 -66 -10 -85 -28 -31 -29 -63
-113 -79 -205 -6 -38 -16 -69 -20 -68 -5 2 -11 64 -13 140 -5 158 -13 176 -87
207 -61 25 -62 50 -3 65 57 14 87 39 115 94 24 48 52 161 52 211 0 58 9 18 20
-89 9 -85 17 -120 38 -158 26 -49 95 -117 117 -117 27 0 34 200 11 288 -28
105 -75 146 -164 144 -43 0 -45 1 -28 14 23 16 10 19 -17 3z m174 -148 c19
-15 23 -28 23 -73 1 -93 -53 -139 -104 -88 -33 33 -23 137 17 168 23 17 37 15
64 -7z m-21 -226 c0 -8 -7 -15 -15 -15 -8 0 -15 7 -15 15 0 8 7 15 15 15 8 0
15 -7 15 -15z m-72 -278 c2 -19 -1 -27 -12 -27 -20 0 -29 16 -21 41 9 27 29
19 33 -14z"/>
<path d="M4235 6905 c-5 -2 -44 -11 -85 -20 -134 -31 -262 -133 -320 -257 -26
-54 -35 -87 -56 -196 l-4 -22 -22 20 c-29 27 -64 25 -93 -5 -32 -31 -34 -96
-5 -125 25 -25 45 -26 35 -2 -21 52 -8 112 24 112 39 0 52 -59 21 -90 -21 -21
-26 -40 -11 -40 5 0 17 7 25 16 9 8 16 20 16 25 0 5 4 9 9 9 4 0 11 -21 14
-48 20 -173 157 -333 337 -393 83 -27 233 -36 334 -20 261 42 405 255 368 544
-14 112 -30 170 -43 161 -6 -3 -7 5 -4 23 5 19 4 24 -3 15 -7 -11 -10 -9 -15
7 -3 12 -1 19 4 16 5 -3 1 8 -9 24 -9 17 -20 31 -24 31 -5 0 -8 7 -8 16 0 20
-25 45 -35 36 -5 -4 -5 -2 -1 5 9 17 -55 75 -118 106 -73 36 -166 57 -251 56
-38 0 -74 -2 -80 -4z m226 -95 c72 -27 120 -63 160 -118 71 -98 103 -211 103
-357 -1 -120 -24 -200 -79 -275 -124 -169 -435 -176 -625 -12 -86 73 -130 189
-130 339 0 154 58 290 154 363 29 22 59 40 67 40 8 0 24 7 36 15 55 39 219 42
314 5z m155 -6 c18 -14 18 -14 -6 -3 -31 14 -36 19 -24 19 6 0 19 -7 30 -16z
m181 -316 c-3 -8 -6 -5 -6 6 -1 11 2 17 5 13 3 -3 4 -12 1 -19z"/>
<path d="M4160 6785 c-14 -7 -32 -16 -41 -19 -10 -2 -22 -25 -30 -55 -8 -34
-16 -47 -21 -39 -6 9 -8 4 -7 -12 1 -14 1 -43 0 -65 -1 -31 -4 -37 -12 -25 -8
12 -9 11 -5 -5 5 -22 26 -169 26 -188 0 -14 48 43 108 127 35 50 42 68 42 107
0 38 -25 177 -33 186 -1 1 -13 -5 -27 -12z"/>
<path d="M4220 6798 c1 -10 29 -79 44 -107 17 -33 19 -34 32 -16 8 10 14 24
14 31 0 7 13 23 30 37 l29 25 -33 16 c-28 13 -116 23 -116 14z"/>
<path d="M4372 6738 c-7 -7 -12 -18 -12 -25 0 -10 6 -10 25 3 14 9 22 20 19
25 -7 12 -18 11 -32 -3z"/>
<path d="M4306 6654 c-3 -8 -2 -23 3 -32 12 -23 60 -67 66 -61 7 7 -25 93 -38
101 -18 11 -24 10 -31 -8z"/>
<path d="M4154 6437 c-64 -96 -80 -127 -64 -127 6 0 10 9 10 20 0 11 6 20 13
20 18 0 74 79 92 131 9 23 14 43 13 45 -2 1 -31 -39 -64 -89z"/>
<path d="M4489 6319 c-52 -60 -89 -110 -58 -81 37 35 88 -3 69 -52 -17 -45
-70 -32 -83 19 -2 11 -5 -33 -6 -97 -1 -111 -2 -118 -21 -118 -12 0 -20 7 -20
16 0 21 -33 114 -40 114 -11 0 -81 -102 -78 -112 4 -10 169 -53 173 -45 1 1
18 31 39 66 20 36 48 97 62 137 26 77 43 214 27 214 -5 0 -34 -28 -64 -61z"/>
<path d="M4096 6283 c5 -5 12 -12 15 -16 3 -5 9 -2 12 7 5 12 0 16 -15 16 -12
0 -17 -3 -12 -7z"/>
<path d="M4262 6172 c-18 -22 -32 -44 -32 -50 0 -5 -7 -15 -15 -22 -16 -14
-20 -40 -6 -40 5 0 12 11 15 25 4 15 11 22 19 19 21 -8 71 70 59 91 -8 14 -13
11 -40 -23z"/>
<path d="M5634 6873 c51 -77 60 -117 60 -280 1 -104 4 -143 10 -120 4 17 6 91
4 162 -5 134 -17 185 -60 248 -29 42 -42 32 -14 -10z"/>
<path d="M6440 6225 c-113 -24 -123 -29 -132 -60 -4 -16 -6 -31 -4 -32 2 -2
34 1 72 7 38 6 104 11 146 11 56 0 82 4 93 15 20 21 19 29 -7 54 -26 24 -71
25 -168 5z"/>
<path d="M6220 6045 c0 -5 5 -17 10 -25 5 -8 10 -10 10 -5 0 6 -5 17 -10 25
-5 8 -10 11 -10 5z"/>
<path d="M6210 6000 c0 -5 5 -10 11 -10 5 0 7 5 4 10 -3 6 -8 10 -11 10 -2 0
-4 -4 -4 -10z"/>
<path d="M4933 5975 c-38 -16 -52 -51 -29 -74 34 -33 187 -7 203 35 17 46 -99
72 -174 39z"/>
<path d="M6235 5953 c6 -26 6 -27 -13 -10 -32 29 -34 19 -3 -15 17 -18 31 -40
31 -48 0 -13 -1 -13 -11 0 -8 11 -9 9 -4 -10 4 -14 11 -29 15 -34 5 -5 6 -15
3 -23 -5 -11 -9 -11 -25 4 -18 16 -18 14 2 -20 13 -21 29 -55 36 -75 l14 -37
-5 50 c-3 28 -8 77 -11 110 -4 53 -7 80 -12 123 -1 6 -7 12 -13 12 -7 0 -9
-10 -4 -27z"/>
<path d="M6290 5912 c0 -29 3 -31 48 -37 80 -12 192 -35 254 -55 71 -22 88
-18 88 20 0 23 -7 31 -47 48 -64 27 -128 39 -245 48 l-98 7 0 -31z"/>
<path d="M5280 5921 c0 -5 9 -7 20 -4 11 3 20 7 20 9 0 2 -9 4 -20 4 -11 0
-20 -4 -20 -9z"/>
<path d="M5146 5908 c-16 -6 -39 -16 -53 -23 -21 -11 -17 -13 46 -19 39 -4 72
-12 74 -19 3 -9 8 -9 17 -1 9 9 19 8 41 -5 16 -9 29 -19 29 -23 0 -22 -82 -88
-135 -109 -54 -21 -76 -23 -235 -23 -111 -1 -187 3 -207 11 -30 11 -34 9 -70
-23 -21 -20 -65 -53 -98 -75 -55 -36 -70 -53 -25 -29 15 8 21 6 29 -7 6 -10
11 -13 11 -6 0 21 30 2 31 -21 1 -16 2 -17 6 -3 5 18 23 24 23 7 0 -6 3 -9 8
-8 4 1 21 -4 37 -11 34 -14 91 -9 156 14 61 21 135 19 205 -6 35 -12 72 -18
92 -15 31 5 32 4 33 -32 0 -20 4 -46 9 -57 6 -14 9 0 7 44 l-2 64 41 21 c23
12 49 27 58 35 9 7 25 11 36 8 11 -3 18 -1 15 3 -6 10 28 44 68 68 22 13 27
23 27 55 0 35 2 38 23 31 38 -12 101 -58 123 -92 26 -38 40 -137 29 -209 -7
-50 -60 -170 -95 -213 -16 -21 -21 -22 -29 -11 -7 12 -13 5 -26 -27 -10 -23
-21 -42 -26 -42 -5 0 -9 24 -10 53 0 28 -4 70 -9 92 l-9 40 4 -48 c5 -52 -12
-199 -24 -207 -9 -6 -35 -54 -53 -97 -7 -18 -16 -33 -20 -33 -3 0 -14 23 -23
51 -9 28 -18 49 -20 47 -6 -5 24 -110 35 -123 6 -7 13 -32 16 -56 3 -24 16
-66 30 -95 76 -161 101 -444 34 -381 -10 10 -11 6 -8 -15 3 -15 1 -25 -3 -22
-5 3 -9 -4 -9 -16 0 -23 -39 -44 -54 -29 -6 5 -4 30 4 64 11 48 11 68 -3 148
-18 103 -45 203 -46 171 -1 -11 5 -43 13 -70 23 -79 39 -200 31 -231 l-8 -28
-9 35 c-19 75 -29 116 -35 143 -3 15 -9 27 -14 27 -5 0 -6 15 -4 33 3 17 3 26
-1 20 -3 -7 -12 -13 -20 -13 -8 0 -14 6 -14 13 0 6 -13 26 -28 42 -39 42 -134
187 -176 270 -20 39 -36 63 -36 55 0 -8 12 -37 26 -65 14 -27 38 -72 52 -100
24 -47 34 -63 83 -135 11 -17 40 -70 65 -118 56 -109 65 -174 36 -247 -17 -43
-24 -50 -49 -53 -24 -2 -36 4 -61 32 -18 21 -32 30 -35 23 -2 -7 -4 4 -5 23
-2 61 -3 69 -13 75 -5 4 -7 10 -4 15 3 5 -1 24 -8 42 -8 19 -17 58 -21 88 -4
31 -12 62 -17 70 -9 12 -10 12 -5 -3 3 -10 9 -52 12 -95 4 -42 10 -87 15 -100
5 -13 9 -33 9 -46 0 -12 8 -38 19 -58 15 -31 16 -38 4 -42 -21 -8 -25 -7 -18
4 3 6 1 10 -5 10 -34 0 -174 167 -200 240 -7 19 -19 53 -27 75 -22 61 -17 176
12 265 18 58 22 84 15 110 -10 44 -31 102 -40 115 -4 6 -10 23 -14 39 -4 15
-15 47 -25 70 -11 22 -29 71 -42 108 -12 37 -24 66 -26 64 -4 -4 1 -22 48
-170 11 -33 19 -64 19 -70 0 -6 6 -23 14 -38 22 -42 39 -131 33 -174 -3 -21
-13 -64 -22 -94 -17 -58 -15 -210 3 -233 5 -7 12 -25 16 -40 4 -15 11 -25 16
-22 5 3 7 0 5 -7 -8 -21 66 -129 127 -187 l53 -51 -31 0 c-17 0 -44 10 -60 22
-40 31 -94 90 -94 102 0 6 -4 5 -9 -3 -8 -12 -13 -12 -35 3 -30 19 -72 82 -82
120 -3 15 -11 29 -17 33 -11 7 -5 -57 9 -91 6 -16 4 -18 -14 -14 -23 6 -31 -7
-9 -15 7 -2 8 -8 3 -13 -5 -5 -11 -4 -13 4 -3 6 -9 9 -15 6 -6 -4 -6 1 1 14
10 19 -2 57 -39 124 -6 10 -10 29 -10 43 0 23 -2 24 -27 14 -15 -5 -39 -22
-53 -38 -14 -15 -33 -25 -42 -23 -14 3 -16 -1 -11 -15 6 -16 5 -16 -10 -4 -26
21 -20 -3 8 -37 30 -36 31 -42 5 -42 -27 0 -70 28 -70 45 0 8 -9 16 -20 20
-22 7 -43 -2 -35 -14 4 -8 -33 -56 -96 -125 l-27 -29 -60 47 -60 48 24 36 25
37 -23 10 c-13 5 -25 12 -28 15 -5 5 -59 27 -90 36 -8 3 -40 -10 -70 -28 -41
-25 -58 -42 -66 -68 -10 -31 -22 -39 -125 -87 -127 -60 -138 -61 -234 -20
-133 56 -337 74 -398 34 -25 -16 -27 -23 -26 -80 0 -34 4 -84 7 -110 l7 -48
45 40 c51 45 128 85 182 95 59 11 145 -34 174 -90 18 -34 18 -34 -8 -31 -21 2
-24 -3 -28 -50 -3 -29 -4 -53 -3 -53 2 0 12 9 23 20 12 12 26 18 33 13 9 -6 8
-8 -3 -11 -16 -4 -65 -60 -58 -67 2 -2 16 7 31 20 33 31 37 31 37 0 0 -66 -81
-225 -115 -225 -8 0 -18 -12 -21 -26 -5 -20 -11 -24 -28 -20 -11 3 -49 11 -83
17 -62 11 -62 11 -48 33 9 11 20 37 25 56 5 20 17 44 25 55 15 19 15 18 9 -10
-4 -16 -10 -32 -14 -35 -14 -10 -22 -50 -10 -50 6 0 9 4 5 10 -3 5 3 18 15 30
11 11 20 25 20 30 0 6 5 10 11 10 10 0 76 47 107 77 24 23 -5 14 -35 -10 -15
-13 -36 -26 -45 -30 -10 -3 -18 -11 -18 -17 0 -20 -20 -9 -26 15 -3 14 -10 25
-15 25 -12 0 -34 -42 -31 -60 2 -9 -4 -7 -15 7 -24 30 -38 17 -38 -32 0 -31
-4 -40 -19 -43 -11 -2 -26 -10 -33 -17 -11 -11 -10 -14 5 -18 13 -4 13 -5 -4
-6 -12 0 -27 5 -33 13 -10 12 -16 12 -42 -1 -18 -9 -40 -12 -58 -8 -22 5 -44
-2 -88 -25 -86 -45 -90 -50 -116 -131 -34 -101 -39 -139 -24 -168 14 -28 87
-60 140 -60 32 -1 37 -4 33 -18 -3 -10 -8 -59 -12 -108 -8 -117 8 -223 47
-303 59 -122 226 -253 302 -237 18 4 58 23 89 42 l57 34 81 -47 c79 -46 107
-74 95 -94 -4 -6 -28 -22 -55 -35 -60 -30 -117 -79 -126 -108 -4 -11 -16 -28
-27 -37 -40 -33 -17 -193 31 -219 9 -5 28 -7 42 -5 21 4 33 -5 75 -57 67 -82
152 -153 230 -189 35 -17 68 -30 73 -30 5 0 32 -18 61 -39 47 -36 60 -40 151
-51 96 -12 130 -10 130 7 0 10 -111 58 -154 68 -33 7 -81 41 -69 48 4 3 29 8
56 12 26 4 47 12 47 19 0 6 5 3 11 -7 6 -10 8 -21 5 -24 -3 -4 -6 -1 -6 6 0 9
-5 9 -20 1 -11 -6 -25 -8 -30 -5 -6 3 -10 1 -10 -5 0 -7 -7 -10 -14 -7 -10 4
-13 1 -10 -8 7 -18 50 -28 73 -15 14 7 21 6 23 -2 3 -7 12 -9 24 -4 19 7 19 8
0 22 -24 17 -9 18 27 1 15 -6 27 -19 27 -27 0 -12 -2 -13 -9 -1 -5 7 -14 10
-20 7 -16 -10 -14 -26 3 -26 8 0 16 -5 18 -12 3 -7 11 -5 25 7 12 10 19 24 16
31 -3 9 2 14 17 14 11 0 18 -4 15 -10 -3 -5 1 -10 10 -10 9 0 14 -4 10 -10 -3
-5 -12 -7 -20 -3 -9 3 -15 -1 -15 -11 0 -9 -4 -16 -10 -16 -5 0 -10 -6 -10
-14 0 -14 42 -26 91 -26 24 0 29 -4 29 -25 0 -20 6 -25 37 -31 20 -4 48 -13
62 -20 14 -8 35 -14 46 -13 14 0 11 4 -12 12 -42 16 -48 24 -34 41 7 8 14 41
16 73 l4 58 44 -3 c27 -2 51 3 59 10 23 21 57 38 75 37 10 0 1 -9 -22 -20
l-40 -19 40 6 c44 6 95 38 95 59 0 7 8 15 18 17 9 3 26 22 37 44 11 21 25 42
30 46 6 4 0 8 -13 8 -13 0 -20 -4 -17 -10 3 -5 -3 -10 -14 -10 -12 0 -21 6
-21 13 0 9 -24 11 -97 9 -54 -2 -131 -1 -172 3 l-73 7 6 41 c4 23 15 51 26 62
10 11 20 29 22 40 2 13 13 21 28 23 l25 3 -22 -15 c-29 -21 -26 -56 4 -56 13
0 23 4 23 10 0 5 -7 7 -15 4 -11 -5 -13 -2 -9 10 3 9 10 16 15 16 5 0 9 7 9
15 0 19 14 19 29 1 7 -8 21 -13 32 -11 10 2 19 0 19 -6 0 -5 -4 -9 -10 -9 -5
0 -10 -6 -10 -13 0 -10 18 -14 70 -15 39 0 70 3 70 8 0 5 6 7 14 4 11 -4 13 0
9 17 l-6 22 -19 -22 c-11 -14 -18 -18 -18 -10 0 9 -3 10 -8 4 -4 -5 -16 -9
-27 -9 -11 1 -29 2 -40 3 -17 1 -17 3 -5 11 8 5 25 10 38 10 12 0 22 5 22 11
0 8 -13 10 -37 7 -21 -3 -47 -2 -58 3 -15 6 -11 8 18 8 21 1 46 5 56 11 10 5
34 11 53 13 19 2 40 7 46 11 8 5 11 0 10 -11 0 -10 0 -29 0 -43 l2 -24 16 23
c11 16 13 25 6 30 -7 4 -8 12 -2 21 7 12 12 12 28 -4 15 -12 22 -14 27 -6 4 7
2 16 -5 20 -7 4 -8 9 -4 11 5 2 20 17 34 33 22 26 23 28 5 22 -11 -4 -29 -9
-40 -10 -11 -2 -29 -7 -40 -13 -31 -16 -132 -31 -212 -32 -81 -1 -89 7 -58 65
8 16 15 44 15 62 0 17 5 32 10 32 6 0 10 -4 10 -10 0 -6 9 -6 24 0 20 7 25 5
29 -11 6 -21 -9 -37 -16 -17 -2 7 -3 5 -2 -4 2 -9 -2 -19 -9 -22 -6 -3 0 -3
14 0 33 8 32 6 22 51 -10 45 -6 52 56 76 28 11 56 15 81 11 24 -4 41 -2 45 5
4 6 0 11 -11 11 -17 1 -16 1 1 12 15 8 21 8 24 0 2 -7 13 -12 24 -12 31 0 16
-10 -36 -23 -37 -10 -43 -15 -36 -27 8 -13 11 -13 19 -1 5 8 14 10 21 6 9 -5
11 -4 6 3 -5 8 1 12 16 12 42 1 75 41 37 46 -5 1 -13 2 -19 3 -5 0 -10 5 -10
10 0 5 9 7 20 4 15 -4 20 0 20 15 0 12 10 27 22 33 13 7 18 14 11 16 -6 2 -47
-11 -91 -30 -43 -20 -125 -54 -181 -77 l-101 -42 -73 74 c-39 41 -85 85 -102
99 -16 14 -52 52 -80 84 -59 69 -61 71 -109 113 -36 32 -37 34 -39 108 -2 66
-5 78 -26 95 -29 23 -69 24 -100 2 -23 -15 -25 -15 -37 3 -8 10 -23 32 -35 47
-28 35 -60 92 -106 187 -20 41 -47 88 -61 104 -23 28 -23 31 -6 43 29 21 86
27 157 15 92 -16 106 -15 151 9 71 38 94 89 62 135 -13 18 -12 23 7 45 12 14
39 38 60 53 20 15 37 35 37 44 0 17 32 52 48 52 5 0 15 -11 22 -25 7 -14 15
-23 18 -20 2 2 -5 20 -16 39 -12 20 -17 38 -11 41 19 12 8 25 -18 21 l-28 -5
30 24 c17 14 32 20 33 15 5 -14 29 -12 35 3 4 9 6 9 6 -1 1 -8 -8 -16 -19 -19
-26 -7 -25 -17 3 -36 12 -8 19 -18 14 -23 -4 -4 -13 -2 -19 4 -7 7 -17 12 -23
12 -5 0 -2 -7 8 -14 10 -8 16 -19 15 -26 -2 -7 3 -15 11 -18 9 -3 11 0 6 8 -5
9 -4 11 3 6 9 -5 12 11 12 58 0 42 -4 66 -12 69 -7 3 -4 6 7 6 20 1 21 -4 17
-66 -3 -49 -9 -72 -21 -83 -10 -9 -20 -33 -24 -54 -3 -21 -16 -49 -27 -61 -18
-19 -20 -27 -11 -44 7 -12 19 -21 29 -20 25 1 69 17 52 18 -10 1 -11 4 -4 9 8
4 13 55 15 141 3 96 8 136 17 139 6 2 12 9 12 15 0 5 -3 7 -7 3 -4 -3 -17 19
-30 51 l-23 57 32 35 c18 20 36 38 39 41 13 13 99 158 99 168 0 17 41 15 83
-3 35 -14 36 -16 25 -47 -25 -73 -83 -162 -143 -223 -32 -31 -33 -35 -23 -76
5 -24 8 -75 7 -114 -2 -38 0 -76 5 -83 7 -12 2 -65 -11 -98 -4 -10 4 -14 31
-14 20 0 36 -4 36 -10 0 -5 -4 -10 -10 -10 -5 0 -10 -7 -10 -15 0 -9 -9 -15
-25 -15 -14 0 -25 -5 -25 -11 0 -6 -9 -8 -20 -4 -20 6 -28 -9 -11 -19 5 -3 14
-19 19 -35 9 -25 8 -29 -4 -24 -8 3 -14 1 -15 -3 0 -5 -2 -71 -3 -147 -3 -129
-2 -140 17 -157 21 -21 42 -17 33 6 -6 16 13 76 28 87 8 6 7 10 -1 14 -7 2
-13 9 -13 15 0 11 26 39 31 33 7 -6 -3 -115 -9 -111 -4 2 -8 -18 -8 -45 -1
-27 2 -47 6 -44 4 2 7 21 8 41 2 39 8 52 19 40 4 -3 2 -24 -3 -46 -6 -21 -7
-45 -3 -52 7 -10 9 -10 9 2 3 69 25 165 45 190 17 21 25 60 13 60 -7 0 -6 5 1
14 13 15 11 107 -1 99 -8 -4 -10 4 -12 50 -1 15 2 27 7 27 5 0 7 -14 3 -30 -3
-19 -2 -29 4 -25 6 3 10 18 11 33 0 28 17 77 18 55 1 -8 16 -13 41 -13 40 0
40 0 40 -39 0 -22 3 -42 8 -45 4 -2 31 15 61 40 29 24 60 44 69 44 41 0 562
41 635 49 45 6 127 13 181 17 107 7 108 7 64 -43 l-20 -21 41 -44 c38 -42 40
-46 29 -80 -6 -20 -8 -46 -4 -59 10 -40 203 -247 269 -290 88 -57 181 -82 287
-77 122 6 173 34 238 130 18 26 37 50 43 53 5 4 31 1 57 -5 35 -9 57 -10 88
-1 35 9 42 16 52 50 7 21 12 46 12 55 0 9 4 16 9 16 5 0 7 10 3 22 -3 14 -2
19 6 14 12 -7 16 8 13 49 -1 15 0 17 7 7 7 -11 10 -10 14 5 3 10 9 27 14 38 7
18 6 18 -9 6 -9 -7 -17 -9 -17 -4 0 5 11 16 25 23 14 7 25 20 25 27 0 8 -5 11
-11 7 -7 -4 -10 -1 -7 7 3 8 11 13 17 11 6 -1 11 2 11 8 0 5 -5 10 -10 10 -12
0 -3 48 13 68 9 11 13 10 25 -5 12 -16 13 -16 7 8 -6 26 18 60 32 45 4 -4 1
-11 -7 -16 -8 -5 -11 -12 -8 -16 4 -3 -2 -25 -14 -48 -26 -49 -118 -329 -111
-336 3 -3 21 13 41 36 25 28 61 98 111 215 134 313 138 322 161 316 11 -3 18
-1 15 4 -3 4 17 20 45 34 27 14 50 21 50 16 0 -5 -16 -15 -36 -21 -54 -18 -34
-22 24 -5 38 12 50 20 49 34 -1 12 -7 17 -22 14 -11 -2 -15 -1 -9 2 7 3 10 14
7 24 -7 27 16 38 97 44 145 10 336 73 405 132 104 90 138 143 192 305 33 99
29 200 -13 287 -16 35 -28 76 -28 103 -1 38 -4 45 -26 50 -23 6 -25 10 -22 58
4 48 2 52 -22 58 -15 3 -32 1 -40 -5 -10 -9 -17 -7 -27 5 -30 37 -135 97 -246
140 -105 42 -132 49 -243 59 -69 6 -136 16 -150 22 -127 55 -182 66 -231 47
-40 -17 -88 -64 -113 -113 -38 -73 -28 -192 23 -273 26 -40 34 -46 76 -52 44
-7 88 -41 141 -108 36 -45 71 -235 55 -295 -10 -38 -86 -122 -141 -155 -74
-44 -157 -41 -212 10 -30 27 -58 98 -58 145 0 30 28 137 57 214 16 43 15 45
-23 85 -5 6 -8 25 -6 42 l4 31 -33 -37 c-48 -54 -92 -175 -124 -346 -15 -76
-24 -99 -47 -122 -30 -30 -35 -61 -19 -115 5 -19 4 -55 -3 -93 -10 -56 -15
-64 -51 -88 -22 -15 -50 -36 -62 -47 -18 -16 -25 -18 -37 -8 -11 9 -20 10 -36
1 -50 -27 -96 51 -120 205 -17 107 -31 132 -76 141 -21 4 -46 2 -61 -5 -21
-10 -29 -9 -44 5 -11 9 -19 23 -19 31 0 7 -9 13 -19 13 -33 0 -51 11 -51 31 0
10 -5 19 -11 19 -5 0 -8 -4 -5 -9 4 -5 -3 -7 -15 -4 -16 4 -17 8 -7 14 8 6 1
9 -23 9 -26 0 -43 8 -67 33 -35 36 -40 58 -16 77 15 14 38 60 56 115 9 29 11
37 23 80 3 13 -4 31 -21 50 l-26 30 6 -27 c3 -16 9 -39 12 -53 7 -30 -5 -32
-33 -6 -12 11 -24 17 -27 14 -3 -4 -6 0 -6 8 0 8 -9 25 -20 39 -15 20 -20 21
-20 8 0 -9 5 -20 10 -23 6 -3 10 -14 10 -24 0 -9 15 -42 33 -72 18 -30 32 -60
29 -67 -4 -12 -55 42 -65 68 -4 10 -6 8 -6 -6 -1 -12 -7 -27 -15 -33 -7 -6
-16 -36 -20 -67 -7 -63 -30 -114 -50 -114 -10 0 -14 21 -15 83 -1 103 -21 180
-72 280 -39 76 -40 83 -38 165 2 81 4 88 40 140 22 31 39 66 39 79 0 13 4 22
9 19 14 -9 23 50 30 189 l6 130 93 1 92 0 2 -70 c0 -39 3 -56 5 -38 2 18 8 30
12 27 5 -2 6 7 3 20 -2 14 0 25 6 25 5 0 9 8 8 17 0 11 10 20 29 26 17 5 45
13 62 18 57 17 166 21 184 7 41 -34 126 -187 120 -217 -5 -27 18 0 29 34 10
31 9 39 -11 67 -72 103 -155 178 -180 162 -8 -4 -9 -3 -5 4 5 8 -2 12 -21 12
l-28 0 30 24 c17 13 28 26 25 28 -7 5 -110 -49 -104 -55 3 -3 -7 -8 -23 -11
-41 -7 -196 -20 -208 -17 -5 2 -37 10 -70 18 -33 8 -67 16 -75 18 -52 14 -94
26 -160 45 -41 11 -123 31 -182 43 -60 12 -108 25 -108 30 0 4 12 4 26 1 20
-5 25 -3 22 6 -6 19 -18 20 -52 8z m474 -175 c124 -37 136 -44 60 -38 -82 6
-250 68 -250 92 0 9 14 7 53 -8 28 -11 90 -32 137 -46z m167 -39 c-3 -3 -12
-4 -19 -1 -8 3 -5 6 6 6 11 1 17 -2 13 -5z m-308 -546 c-7 -61 24 -188 50
-208 4 -3 12 -18 19 -35 6 -16 17 -43 24 -60 16 -41 17 -46 24 -157 8 -114 0
-132 -53 -126 -31 4 -34 1 -45 -33 -13 -44 -41 -57 -56 -25 -5 11 -22 68 -36
126 -43 169 -50 195 -55 200 -4 3 -7 30 -9 61 -3 63 15 118 60 185 15 23 28
45 28 49 0 8 39 45 47 45 3 0 3 -10 2 -22z m-654 -178 c3 -5 1 -10 -4 -10 -6
0 -11 5 -11 10 0 6 2 10 4 10 3 0 8 -4 11 -10z m952 -162 c-3 -7 -5 -2 -5 12
0 14 2 19 5 13 2 -7 2 -19 0 -25z m-67 -202 c0 -2 -7 -9 -15 -16 -13 -11 -14
-10 -9 4 5 14 24 23 24 12z m-1620 -70 l-23 -21 19 33 c10 18 20 28 23 21 2
-6 -7 -21 -19 -33z m1750 9 c0 -1 -11 -5 -25 -7 -16 -3 -25 -1 -25 7 0 8 9 10
25 7 14 -2 25 -6 25 -7z m-162 -56 c2 -19 9 -39 17 -45 9 -6 16 -44 21 -107
l7 -97 -31 0 c-20 0 -33 6 -36 18 -10 29 -69 86 -111 107 -22 11 -42 21 -44
22 -2 2 9 14 25 28 21 18 41 25 72 25 30 0 42 4 42 14 0 8 -4 18 -10 21 -14 9
-12 21 6 40 23 23 39 14 42 -26z m-1121 25 c-3 -3 -12 -4 -19 -1 -8 3 -5 6 6
6 11 1 17 -2 13 -5z m61 -139 c-3 -3 -9 2 -12 12 -6 14 -5 15 5 6 7 -7 10 -15
7 -18z m-16 -30 c-3 -5 2 -4 11 4 14 11 18 11 23 -5 4 -11 13 -34 20 -53 8
-18 14 -44 14 -57 0 -13 4 -24 8 -24 13 0 53 46 56 62 4 28 55 78 84 84 23 5
42 -3 96 -40 37 -25 72 -46 77 -46 6 0 27 -8 48 -18 21 -10 45 -18 54 -16 10
1 17 -2 17 -7 0 -5 7 -9 15 -9 19 0 19 -11 -1 -58 -8 -20 -18 -69 -21 -108
l-6 -72 42 -45 c50 -54 91 -75 168 -86 l58 -9 -56 -1 c-96 -2 -180 53 -230
151 -16 31 -20 59 -20 125 0 72 -2 84 -15 79 -8 -3 -68 -11 -132 -17 -113 -11
-119 -13 -172 -52 -30 -22 -68 -53 -83 -69 -15 -17 -33 -28 -41 -25 -8 3 -19
47 -30 114 -9 59 -19 120 -22 135 -4 20 -1 28 14 32 14 5 18 14 15 39 -3 23
-2 28 6 17 5 -8 7 -19 3 -25z m897 -75 c4 0 7 -10 5 -22 -1 -13 -3 -32 -4 -43
l-1 -20 -10 20 c-8 16 -9 15 -5 -10 3 -20 -2 -39 -14 -55 -15 -20 -20 -21 -20
-8 0 9 7 21 16 26 11 6 13 11 5 16 -6 4 -11 2 -11 -4 0 -6 -4 -9 -9 -5 -5 3
-8 -10 -6 -29 3 -35 -1 -42 -71 -123 -24 -28 -43 -24 -66 14 -15 25 -14 28 21
77 19 28 44 60 54 71 9 10 25 36 34 57 16 37 35 49 61 42 8 -2 17 -4 21 -4z
m-2008 -40 c10 -6 19 -18 19 -28 -1 -15 -2 -15 -15 2 -13 17 -15 17 -15 4 0
-9 -4 -20 -10 -23 -6 -4 -10 7 -10 24 0 34 2 36 31 21z m2084 -37 c-4 -10 -8
-25 -10 -34 -8 -38 -117 -180 -129 -168 -3 3 5 19 19 35 14 16 28 37 31 47 3
11 12 16 20 13 9 -3 12 -1 9 4 -9 14 4 51 16 45 5 -4 9 1 9 9 0 22 22 66 33
66 5 0 6 -8 2 -17z m220 -173 c-4 -6 -14 -9 -22 -6 -8 3 -11 1 -8 -4 3 -6 1
-10 -4 -10 -6 0 -11 6 -12 13 0 8 -2 8 -6 -2 -8 -19 -33 43 -33 80 l0 30 46
-45 c28 -26 44 -49 39 -56z m-802 64 c3 -3 2 -16 -3 -28 -6 -17 -4 -25 11 -34
45 -28 10 -83 -42 -67 -19 6 -20 12 -14 53 3 26 8 55 11 65 5 17 25 23 37 11z
m-342 -77 c13 -10 16 -29 15 -90 -1 -66 -4 -78 -20 -83 -10 -3 -22 -1 -26 5
-3 7 -15 9 -26 5 -15 -4 -13 -1 6 15 26 22 24 24 -25 22 l-30 0 27 8 c35 12
72 38 60 42 -9 3 -17 55 -13 82 1 10 14 8 32 -6z m2323 -62 c3 -22 3 -31 0
-20 -7 24 -24 44 -24 28 0 -7 4 -23 10 -38 7 -17 7 -24 0 -20 -6 3 -10 13 -10
21 0 8 -4 13 -10 9 -5 -3 -7 -11 -5 -18 3 -7 -4 -23 -15 -37 -15 -20 -20 -21
-20 -8 0 9 4 19 8 22 5 3 17 33 27 66 20 65 29 64 39 -5z m21 55 c3 -5 1 -18
-4 -27 -6 -10 -11 -13 -11 -6 0 6 -3 18 -6 27 -7 17 11 22 21 6z m-1555 -24
c0 -2 -7 -6 -15 -10 -8 -3 -15 -1 -15 4 0 6 7 10 15 10 8 0 15 -2 15 -4z
m-1139 -100 c-22 -23 -22 -46 0 -46 6 0 8 4 5 8 -2 4 0 14 5 22 7 11 8 8 6
-10 -4 -28 -31 -39 -40 -17 -8 20 25 88 37 76 6 -5 1 -18 -13 -33z m239 0 c0
-11 -19 -15 -25 -6 -3 5 1 10 9 10 9 0 16 -2 16 -4z m22 -28 c-7 -7 -12 -8
-12 -2 0 6 3 14 7 17 3 4 9 5 12 2 2 -3 -1 -11 -7 -17z m-32 -8 c0 -5 -2 -10
-4 -10 -3 0 -8 5 -11 10 -3 6 -1 10 4 10 6 0 11 -4 11 -10z m60 -14 c0 -9 -40
-13 -46 -5 -3 5 6 9 20 9 14 0 26 -2 26 -4z m86 -25 c-9 -13 -46 -15 -46 -1 0
14 34 30 44 20 4 -4 5 -13 2 -19z m-1066 -13 c27 -45 47 -141 30 -146 -27 -9
-94 -79 -108 -112 -8 -19 -40 -59 -72 -88 -32 -29 -85 -93 -117 -143 l-58 -91
-13 44 c-7 23 -14 64 -15 90 -2 39 2 51 27 77 26 28 27 31 12 46 -9 9 -16 20
-16 25 0 5 -8 6 -17 3 -15 -6 -16 -5 -3 9 13 14 17 13 37 -10 23 -27 29 -26
73 19 47 47 54 59 37 59 -10 0 -17 -7 -17 -15 0 -8 -4 -15 -10 -15 -18 0 -10
29 12 44 12 9 19 18 16 21 -3 3 -17 -4 -31 -16 -23 -17 -25 -24 -16 -41 6 -11
8 -22 5 -26 -3 -3 -6 0 -6 8 0 10 -3 10 -14 0 -8 -6 -12 -18 -10 -25 4 -10 0
-12 -15 -8 -38 10 -30 31 31 85 64 56 79 63 85 38 4 -13 3 -13 -6 0 -5 8 -13
11 -18 6 -4 -4 0 -12 9 -17 10 -6 15 -16 12 -27 -5 -14 -4 -14 4 -2 6 8 9 17
7 21 -3 3 6 12 19 18 12 7 30 25 39 41 16 27 16 28 -3 23 -11 -3 -18 -8 -16
-12 2 -3 -1 -14 -8 -23 -12 -16 -15 -16 -32 -2 -10 9 -14 13 -7 9 7 -3 26 14
45 39 18 25 41 45 52 46 12 0 16 5 12 16 -3 8 1 23 10 32 15 15 16 14 10 -6
-5 -13 -3 -22 3 -22 6 0 11 5 11 12 0 9 3 9 12 0 10 -10 10 -15 -2 -23 -13 -9
-13 -10 0 -6 23 6 23 30 0 55 -11 12 -16 22 -10 22 6 0 19 -15 30 -32z m952
-10 c-7 -7 -12 -8 -12 -2 0 6 3 14 7 17 3 4 9 5 12 2 2 -3 -1 -11 -7 -17z
m-22 -23 c0 -21 -19 -28 -36 -15 -10 9 -11 16 -3 26 12 15 39 8 39 -11z m-60
5 c0 -5 -7 -7 -15 -4 -8 4 -15 8 -15 10 0 2 7 4 15 4 8 0 15 -4 15 -10z m1521
-85 c72 -74 87 -85 116 -85 46 0 176 21 186 30 5 4 22 4 40 1 24 -5 38 -18 64
-63 18 -31 55 -80 82 -109 27 -29 48 -56 46 -60 -6 -9 -103 8 -213 36 -95 25
-207 69 -230 92 -7 7 -18 13 -23 13 -9 0 -72 43 -89 60 -3 3 -27 21 -55 40
-27 19 -59 42 -69 52 -11 10 -23 18 -28 18 -33 0 39 57 74 59 9 1 54 -37 99
-84z m-1561 35 c0 -13 -1 -13 -10 0 -5 8 -10 22 -10 30 0 13 1 13 10 0 5 -8
10 -22 10 -30z m30 19 c0 -5 -4 -9 -10 -9 -5 0 -10 7 -10 16 0 8 5 12 10 9 6
-3 10 -10 10 -16z m48 -21 c-6 -18 -28 -21 -28 -4 0 9 7 16 16 16 9 0 14 -5
12 -12z m-41 -20 c-3 -8 -6 -5 -6 6 -1 11 2 17 5 13 3 -3 4 -12 1 -19z m66
-18 c-3 -11 -7 -20 -9 -20 -2 0 -4 9 -4 20 0 11 4 20 9 20 5 0 7 -9 4 -20z
m-35 -35 c1 -24 -3 -35 -13 -35 -10 0 -14 11 -13 35 1 19 6 35 13 35 7 0 12
-16 13 -35z m59 -27 c-3 -8 -6 -5 -6 6 -1 11 2 17 5 13 3 -3 4 -12 1 -19z
m-67 -32 c0 -8 -4 -18 -10 -21 -5 -3 -10 3 -10 14 0 12 5 21 10 21 6 0 10 -6
10 -14z m21 -101 c-5 -29 -9 -35 -14 -22 -3 9 -1 28 5 42 15 33 17 28 9 -20z
m-1245 -11 c-4 -9 -2 -13 5 -8 7 4 10 1 7 -6 -8 -26 -28 -22 -28 4 0 14 5 26
11 26 6 0 8 -7 5 -16z m1161 -30 c-3 -3 -12 -4 -19 -1 -8 3 -5 6 6 6 11 1 17
-2 13 -5z m-543 -356 c-5 -8 -2 -9 10 -5 14 6 17 3 12 -8 -3 -9 -2 -14 2 -11
5 3 26 -15 47 -40 45 -55 44 -58 -49 -157 -72 -77 -75 -77 -126 13 -51 91 -55
101 -43 108 5 4 30 24 55 45 61 51 82 66 91 67 5 0 5 -5 1 -12z m656 -398 c0
-5 -5 -10 -11 -10 -5 0 -7 5 -4 10 3 6 8 10 11 10 2 0 4 -4 4 -10z m-984 -51
c3 -6 15 -9 25 -6 11 3 17 1 13 -4 -3 -5 -11 -9 -17 -9 -16 1 -54 30 -40 30 7
0 15 -5 19 -11z m-41 -9 c3 -5 1 -10 -4 -10 -6 0 -11 5 -11 10 0 6 2 10 4 10
3 0 8 -4 11 -10z m-32 -7 c-7 -2 -19 -2 -25 0 -7 3 -2 5 12 5 14 0 19 -2 13
-5z m197 -24 c7 -8 70 -29 84 -29 6 1 -2 7 -19 15 -42 19 -24 18 25 -1 22 -9
40 -20 40 -25 0 -14 27 -10 44 6 18 18 26 19 26 2 0 -15 -56 -38 -76 -30 -8 3
-14 12 -14 21 0 8 -3 13 -6 9 -3 -3 -3 -15 1 -27 6 -19 12 -21 42 -15 48 9 73
26 74 50 0 12 4 7 10 -14 14 -46 9 -73 -11 -61 -13 9 -13 11 0 21 12 9 11 9
-5 4 -11 -4 -30 -10 -43 -12 -12 -3 -25 -9 -27 -14 -9 -13 -65 24 -65 44 0 9
-4 17 -10 17 -5 0 -7 -8 -4 -17 4 -11 3 -14 -3 -7 -4 6 -19 15 -32 19 -18 5
-20 9 -10 16 9 5 -5 8 -36 6 -32 -2 -64 3 -90 15 l-40 18 49 -6 c43 -4 48 -3
37 10 -11 13 -8 13 21 3 18 -7 35 -15 38 -18z m274 -15 c-6 -3 -9 -17 -6 -31
l5 -27 9 23 c12 33 19 21 12 -18 -5 -23 -9 -29 -15 -19 -7 10 -9 9 -9 -4 0
-10 -5 -18 -11 -18 -6 0 -8 8 -4 19 3 10 1 30 -4 44 -11 28 -6 37 18 36 9 0
11 -3 5 -5z m289 -42 c-6 -23 -18 -29 -27 -13 -3 5 -16 7 -28 3 -15 -4 -19 -2
-13 7 4 8 17 10 31 7 17 -5 26 -2 30 9 9 23 14 13 7 -13z m-99 -27 c-10 -8
-29 -15 -42 -15 -20 0 -21 -2 -10 -20 7 -11 17 -20 22 -20 4 0 3 7 -4 15 -10
12 -10 15 4 15 9 0 16 -7 16 -16 0 -9 9 -18 20 -21 20 -5 24 -24 11 -56 -6
-17 -7 -17 -26 0 -21 19 -75 98 -75 109 0 4 3 5 6 1 3 -3 20 1 37 8 44 19 67
19 41 0z m56 1 c0 -3 -4 -8 -10 -11 -5 -3 -10 -1 -10 4 0 6 5 11 10 11 6 0 10
-2 10 -4z m-255 -29 c37 -2 54 -11 55 -29 0 -5 -19 -7 -42 -7 l-43 2 40 7 40
7 -42 2 c-23 0 -43 -3 -45 -8 -4 -12 -78 18 -78 31 0 6 15 8 38 3 20 -3 55 -7
77 -8z m225 3 c12 -7 12 -12 2 -22 -9 -9 -12 -8 -12 8 0 14 -2 16 -9 6 -7 -11
-9 -11 -14 2 -7 18 10 21 33 6z m100 -219 c0 -5 -8 -12 -17 -14 -10 -3 -3 -5
15 -6 17 0 32 4 32 9 0 6 5 10 10 10 6 0 10 -7 10 -15 0 -8 7 -15 16 -15 8 0
13 4 10 8 -2 4 4 8 15 8 28 0 23 -13 -8 -21 -56 -14 -57 -50 -3 -66 22 -7 38
-14 36 -16 -2 -2 -34 -5 -72 -7 -49 -3 -58 -2 -31 3 46 10 63 23 19 16 -64
-10 -97 -14 -85 -9 7 3 9 13 6 22 -4 14 -3 15 6 2 8 -12 13 -12 23 -2 14 14
32 16 23 2 -3 -6 1 -7 9 -4 9 3 16 10 16 15 0 11 -32 27 -46 22 -6 -2 -17 3
-24 12 -11 13 -10 19 5 35 19 21 35 26 35 11z m420 -11 c0 -5 -4 -10 -10 -10
-5 0 -10 5 -10 10 0 6 5 10 10 10 6 0 10 -4 10 -10z m-35 -10 c3 -5 -1 -10 -9
-10 -9 0 -16 5 -16 10 0 6 4 10 9 10 6 0 13 -4 16 -10z m72 4 c-3 -3 -12 -4
-19 -1 -8 3 -5 6 6 6 11 1 17 -2 13 -5z m-238 -18 c31 -17 11 -24 -51 -18 -33
3 -48 9 -48 18 0 18 66 18 99 0z m177 -32 c-15 -14 -31 -22 -34 -19 -4 3 7 17
23 30 39 30 49 21 11 -11z m-454 4 c-7 -7 -12 -20 -12 -30 0 -11 -7 -18 -20
-18 l-21 0 21 22 c11 12 20 25 20 30 0 4 5 8 12 8 9 0 9 -3 0 -12z m315 -54
c-3 -3 -12 -4 -19 -1 -8 3 -5 6 6 6 11 1 17 -2 13 -5z m-485 -46 c-9 -9 -15
-9 -24 0 -9 9 -7 12 12 12 19 0 21 -3 12 -12z m318 2 c0 -5 -4 -10 -10 -10 -5
0 -10 5 -10 10 0 6 5 10 10 10 6 0 10 -4 10 -10z"/>
<path d="M5340 4091 c0 -6 4 -11 10 -11 5 0 7 -7 4 -15 -4 -8 -4 -15 -1 -15
13 0 14 30 1 40 -10 9 -14 9 -14 1z"/>
<path d="M5316 4061 c-4 -7 -5 -15 -2 -18 9 -9 19 4 14 18 -4 11 -6 11 -12 0z"/>
<path d="M4633 3875 c0 -14 3 -28 8 -31 5 -3 9 9 9 25 0 17 -4 31 -9 31 -5 0
-8 -11 -8 -25z"/>
<path d="M3550 3719 c0 -6 -9 -9 -20 -6 -11 3 -20 2 -20 -3 0 -15 26 -18 43
-5 19 14 22 25 7 25 -5 0 -10 -5 -10 -11z"/>
<path d="M3320 3543 c-13 -15 -12 -16 4 -10 10 4 20 7 22 7 2 0 4 5 4 10 0 15
-13 12 -30 -7z"/>
<path d="M3840 3026 c-75 -71 -75 -70 -50 -111 12 -19 27 -41 34 -48 7 -6 15
-20 19 -29 3 -10 10 -18 14 -18 11 0 113 116 113 129 0 5 -6 16 -13 23 -7 7
-25 30 -41 51 -16 20 -31 37 -35 37 -3 0 -22 -15 -41 -34z"/>
<path d="M3630 2580 c-18 -12 -2 -12 25 0 13 6 15 9 5 9 -8 0 -22 -4 -30 -9z"/>
<path d="M3861 2476 c2 -2 18 -6 34 -10 22 -5 26 -4 15 4 -14 9 -59 15 -49 6z"/>
<path d="M5228 5913 c6 -2 18 -2 25 0 6 3 1 5 -13 5 -14 0 -19 -2 -12 -5z"/>
<path d="M5388 5913 c7 -3 16 -2 19 1 4 3 -2 6 -13 5 -11 0 -14 -3 -6 -6z"/>
<path d="M4762 5850 c-113 -10 -116 -20 -3 -13 61 4 91 2 91 -5 0 -6 -6 -12
-12 -15 -7 -2 -9 -8 -5 -13 4 -5 12 -3 16 5 7 10 11 10 22 -2 13 -12 16 -12
29 1 10 11 15 12 18 3 3 -9 7 -9 18 0 8 6 14 15 14 19 0 12 -52 2 -61 -12 -6
-9 -9 -10 -9 -1 0 7 12 19 28 27 l27 15 -45 -1 c-25 0 -82 -4 -128 -8z"/>
<path d="M3345 5788 c-4 -13 -8 -30 -9 -38 -2 -8 -8 -40 -15 -71 -15 -70 5
-343 28 -388 5 -9 6 -21 4 -28 -2 -7 1 -22 8 -35 8 -13 14 -25 14 -28 4 -22
20 -58 32 -72 10 -11 11 -18 3 -23 -5 -3 -8 -11 -4 -16 3 -5 10 -7 15 -4 5 4
9 -4 9 -15 0 -13 8 -24 19 -27 10 -2 23 -15 29 -27 9 -21 33 -43 142 -132 43
-35 60 -44 80 -39 19 4 21 3 10 -5 -17 -11 -17 -11 24 -16 16 -2 32 -7 35 -12
7 -11 68 -32 74 -26 2 2 10 -2 17 -11 7 -8 17 -15 22 -15 5 0 -5 18 -23 41
-17 22 -33 52 -35 65 -1 14 -7 31 -14 38 -6 8 -19 31 -30 52 l-19 39 6 -35 c6
-37 6 -38 4 -58 -1 -11 -4 -11 -15 0 -42 43 -63 124 -67 263 -1 50 -8 105 -14
123 l-11 34 -12 -28 c-7 -15 -20 -54 -28 -88 -9 -34 -19 -74 -23 -91 l-7 -30
-21 33 c-46 75 -36 221 24 329 19 35 39 65 44 69 5 3 9 12 9 20 0 47 -93 -95
-121 -185 -16 -51 -19 -80 -14 -128 4 -35 11 -65 16 -68 14 -9 11 -25 -4 -25
-28 0 -57 47 -73 119 -19 82 -11 143 26 217 11 21 20 43 20 49 -1 16 -52 -85
-65 -129 -15 -51 -35 -59 -36 -14 -3 100 11 155 67 256 19 34 34 66 34 70 -1
12 -50 -71 -90 -150 -35 -71 -38 -75 -45 -51 -10 41 5 151 31 223 13 35 21 66
19 68 -2 3 -8 -6 -14 -19 -26 -69 -40 -107 -49 -139 -10 -34 -10 -34 -11 20 0
30 6 79 13 108 14 50 6 76 -9 30z m250 -838 c-3 -5 -12 -10 -18 -10 -7 0 -6 4
3 10 19 12 23 12 15 0z m187 -87 c-3 -16 -7 -22 -10 -15 -4 13 4 42 11 42 2 0
2 -12 -1 -27z"/>
<path d="M4574 5794 c-18 -14 -18 -14 6 -3 31 14 36 19 24 19 -6 0 -19 -7 -30
-16z"/>
<path d="M4800 5780 c-13 -8 -13 -10 2 -10 9 0 20 5 23 10 8 13 -5 13 -25 0z"/>
<path d="M5096 5777 c3 -10 9 -15 12 -12 3 3 0 11 -7 18 -10 9 -11 8 -5 -6z"/>
<path d="M4462 5739 c-40 -23 -71 -43 -69 -45 2 -3 40 16 83 41 43 25 75 45
69 45 -5 0 -43 -19 -83 -41z"/>
<path d="M5773 5773 c9 -2 25 -2 35 0 9 3 1 5 -18 5 -19 0 -27 -2 -17 -5z"/>
<path d="M5903 5773 c9 -2 25 -2 35 0 9 3 1 5 -18 5 -19 0 -27 -2 -17 -5z"/>
<path d="M3511 5744 c0 -11 3 -14 6 -6 3 7 2 16 -1 19 -3 4 -6 -2 -5 -13z"/>
<path d="M5768 5753 c7 -3 16 -2 19 1 4 3 -2 6 -13 5 -11 0 -14 -3 -6 -6z"/>
<path d="M4533 5729 c-35 -22 -46 -37 -15 -20 22 13 58 40 52 41 -3 0 -20 -10
-37 -21z"/>
<path d="M3019 5736 c-3 -3 -23 -7 -44 -9 -110 -9 -280 -83 -355 -153 -54 -50
-66 -85 -39 -110 20 -18 22 -17 124 51 38 26 94 59 125 75 58 29 189 72 228
74 25 2 27 5 18 46 -4 23 -11 30 -29 30 -13 0 -26 -2 -28 -4z"/>
<path d="M3596 5694 c-4 -14 -5 -28 -3 -31 3 -2 8 8 11 23 4 14 5 28 3 31 -3
2 -8 -8 -11 -23z"/>
<path d="M4360 5680 c-9 -6 -10 -10 -3 -10 6 0 15 5 18 10 8 12 4 12 -15 0z"/>
<path d="M7655 5681 c-23 -7 -85 -52 -85 -61 0 -4 16 -7 36 -8 85 -3 377 -66
447 -97 25 -11 22 17 -5 43 -65 60 -330 143 -393 123z"/>
<path d="M3546 5595 c-9 -26 -7 -32 5 -12 6 10 9 21 6 23 -2 3 -7 -2 -11 -11z"/>
<path d="M3620 5606 c0 -2 7 -6 15 -10 8 -3 15 -1 15 4 0 6 -7 10 -15 10 -8 0
-15 -2 -15 -4z"/>
<path d="M4430 5600 c-8 -5 -10 -10 -5 -10 6 0 17 5 25 10 8 5 11 10 5 10 -5
0 -17 -5 -25 -10z"/>
<path d="M4160 5589 c0 -5 5 -7 10 -4 6 3 10 8 10 11 0 2 -4 4 -10 4 -5 0 -10
-5 -10 -11z"/>
<path d="M5761 5584 c0 -11 3 -14 6 -6 3 7 2 16 -1 19 -3 4 -6 -2 -5 -13z"/>
<path d="M3678 5584 c-12 -11 4 -40 33 -59 34 -23 35 -32 12 -65 -24 -33 -29
-165 -7 -174 8 -3 12 -2 9 4 -3 6 -2 10 3 10 6 0 10 10 10 23 -1 34 8 86 15
94 4 3 7 19 7 34 0 15 4 30 9 33 9 6 178 -35 199 -48 16 -10 27 -2 17 13 -3 6
-20 11 -38 11 -54 0 -16 18 53 24 96 10 87 19 -15 16 -111 -4 -143 0 -95 10
l35 7 -42 2 c-24 0 -43 6 -43 12 0 7 -11 8 -30 4 -18 -4 -30 -2 -30 3 0 6 -17
16 -37 23 -21 6 -43 15 -49 20 -6 5 -13 6 -16 3z"/>
<path d="M4040 5581 c-8 -4 -51 -16 -95 -25 -109 -24 -109 -24 -32 -25 37 -1
67 3 67 8 0 5 24 12 54 15 75 10 129 27 61 20 -37 -4 -46 -3 -35 5 18 12 2 14
-20 2z"/>
<path d="M4376 5575 c-11 -8 -16 -15 -10 -15 5 0 18 7 28 15 11 8 16 15 10 15
-5 0 -18 -7 -28 -15z"/>
<path d="M5940 5572 c0 -24 99 -211 127 -240 6 -6 15 -21 18 -32 3 -11 10 -20
15 -20 9 0 -38 88 -62 117 -5 6 -29 51 -54 100 -24 48 -44 82 -44 75z"/>
<path d="M3517 5553 c-4 -3 -7 -13 -7 -22 1 -13 3 -13 11 2 11 19 8 33 -4 20z"/>
<path d="M5771 5490 c-1 -41 -6 -125 -11 -187 -7 -70 -7 -130 -1 -160 9 -48 9
-48 12 32 1 44 2 91 1 105 -1 24 -1 24 18 -5 11 -16 22 -42 26 -57 3 -16 9
-28 14 -28 4 0 -3 30 -16 68 -13 38 -24 92 -25 127 -1 33 -5 87 -9 120 l-8 60
-1 -75z"/>
<path d="M5656 5529 c-9 -45 -16 -122 -10 -117 7 7 24 131 19 136 -2 3 -6 -6
-9 -19z"/>
<path d="M4552 5520 c0 -14 2 -19 5 -12 2 6 2 18 0 25 -3 6 -5 1 -5 -13z"/>
<path d="M7598 5523 c-33 -38 -40 -62 -28 -99 25 -75 94 -98 144 -48 36 37 37
104 1 139 -30 31 -94 34 -117 8z"/>
<path d="M4228 5523 c6 -2 18 -2 25 0 6 3 1 5 -13 5 -14 0 -19 -2 -12 -5z"/>
<path d="M4347 5503 c-32 -13 -71 -26 -85 -28 -15 -3 -56 -9 -92 -14 -36 -6
-90 -11 -120 -12 l-55 -1 55 -11 c30 -7 54 -16 54 -20 -5 -31 -64 -114 -127
-179 -61 -62 -80 -89 -102 -148 -23 -60 -26 -80 -20 -124 4 -28 9 -66 11 -85
2 -18 9 -40 16 -48 11 -13 13 -13 20 4 5 12 6 7 5 -17 -1 -23 2 -34 10 -33 7
2 12 -2 10 -9 -1 -6 11 -16 26 -22 22 -8 30 -7 39 4 8 13 9 12 5 -1 -4 -12 3
-18 26 -23 18 -4 33 -2 37 5 5 7 9 5 13 -5 4 -9 16 -16 27 -16 34 0 22 -18
-25 -35 l-45 -18 37 -33 c20 -19 38 -34 39 -34 1 0 15 7 30 15 16 8 37 15 48
15 15 0 16 3 6 15 -7 9 -10 18 -6 22 3 4 12 0 19 -9 29 -36 75 -58 106 -52 17
4 31 9 31 13 -2 20 -29 103 -29 89 -1 -28 -29 -21 -46 12 -8 16 -15 53 -16 82
l-1 53 -10 -42 c-10 -48 -34 -58 -44 -18 -7 30 2 112 21 184 7 28 10 53 6 56
-16 9 -67 -134 -69 -194 -1 -30 -14 -43 -35 -35 -11 4 -17 21 -20 57 l-3 52
-2 -57 c-2 -59 -10 -72 -35 -62 -23 9 -40 62 -39 124 l1 55 -12 -44 c-16 -57
-32 -62 -44 -14 l-9 38 -8 -48 c-6 -38 -11 -47 -24 -45 -13 2 -18 16 -21 53
-6 91 -2 187 9 201 7 7 9 17 6 22 -3 5 27 43 67 85 100 107 123 137 132 175 6
30 22 39 58 33 4 0 7 3 7 8 0 5 12 6 28 2 19 -5 29 -16 33 -37 6 -26 7 -27 8
-4 2 35 45 69 83 65 23 -3 29 -1 24 10 -4 11 2 15 22 15 16 0 32 8 40 20 16
26 5 25 -71 -7z m-157 -803 c0 -5 -2 -10 -4 -10 -3 0 -8 5 -11 10 -3 6 -1 10
4 10 6 0 11 -4 11 -10z"/>
<path d="M4125 5511 c-22 -3 -35 -9 -30 -13 6 -3 35 0 65 7 56 14 37 17 -35 6z"/>
<path d="M5255 5485 c3 -22 5 -71 5 -109 0 -38 3 -67 6 -63 9 9 5 136 -6 177
l-10 35 5 -40z"/>
<path d="M5820 5515 c0 -5 5 -17 10 -25 5 -8 10 -10 10 -5 0 6 -5 17 -10 25
-5 8 -10 11 -10 5z"/>
<path d="M5902 5453 c34 -51 47 -66 91 -116 35 -39 97 -134 97 -147 0 -6 4
-10 9 -10 28 0 13 28 -61 120 -46 56 -98 120 -115 142 -18 23 -33 45 -33 49 0
5 -5 9 -10 9 -6 0 4 -21 22 -47z"/>
<path d="M4817 5440 c-9 -29 -17 -60 -16 -69 0 -9 9 10 20 43 11 32 18 63 16
69 -1 5 -11 -14 -20 -43z"/>
<path d="M5030 5440 c0 -29 2 -51 4 -49 8 8 10 88 3 95 -4 4 -7 -17 -7 -46z"/>
<path d="M5371 5454 c0 -11 3 -14 6 -6 3 7 2 16 -1 19 -3 4 -6 -2 -5 -13z"/>
<path d="M3112 5444 c-18 -8 -38 -12 -43 -8 -6 3 -27 -7 -47 -23 -20 -16 -63
-46 -94 -67 -69 -45 -185 -166 -205 -213 -12 -31 -12 -38 2 -59 8 -13 21 -24
29 -24 7 0 72 57 143 128 72 70 147 136 167 146 21 11 53 35 72 53 28 26 33
37 28 58 -7 28 -7 29 -52 9z"/>
<path d="M4562 5435 c0 -16 2 -22 5 -12 2 9 2 23 0 30 -3 6 -5 -1 -5 -18z"/>
<path d="M4871 5404 c-7 -33 -11 -71 -8 -85 3 -18 5 -16 6 11 0 19 6 52 12 73
6 21 9 43 6 50 -2 6 -9 -16 -16 -49z"/>
<path d="M4363 5389 c0 -51 -6 -79 -27 -125 -15 -32 -30 -61 -35 -64 -4 -3
-24 -36 -45 -74 -26 -48 -34 -72 -27 -79 8 -8 11 -6 11 5 0 17 73 153 95 178
7 8 18 28 24 43 6 16 15 25 21 22 10 -6 5 56 -10 125 -6 29 -8 23 -7 -31z"/>
<path d="M7939 5424 c-15 -18 0 -38 27 -32 25 5 28 25 6 37 -15 8 -23 7 -33
-5z"/>
<path d="M5881 5403 c7 -12 15 -20 18 -17 3 2 -3 12 -13 22 -17 16 -18 16 -5
-5z"/>
<path d="M5636 5378 c-11 -53 -16 -132 -7 -118 4 8 11 43 14 78 5 62 2 82 -7
40z"/>
<path d="M3914 5353 c-16 -21 -38 -49 -50 -63 -47 -54 -86 -143 -89 -202 -2
-32 1 -55 6 -52 5 3 9 20 9 39 0 67 47 164 134 278 16 20 26 37 23 37 -3 0
-18 -17 -33 -37z"/>
<path d="M4602 5370 c0 -14 2 -19 5 -12 2 6 2 18 0 25 -3 6 -5 1 -5 -13z"/>
<path d="M8474 5370 c-39 -15 -36 -29 12 -57 76 -44 246 -160 279 -189 17 -15
49 -45 73 -68 l42 -40 0 52 c0 52 0 52 -80 132 -65 64 -99 88 -173 124 -107
52 -125 57 -153 46z"/>
<path d="M5172 5350 c0 -14 2 -19 5 -12 2 6 2 18 0 25 -3 6 -5 1 -5 -13z"/>
<path d="M5022 5340 c0 -14 2 -19 5 -12 2 6 2 18 0 25 -3 6 -5 1 -5 -13z"/>
<path d="M5850 5356 c0 -2 16 -21 36 -42 23 -26 31 -31 24 -16 -16 33 -60 75
-60 58z"/>
<path d="M4550 5335 c0 -5 5 -17 10 -25 5 -8 10 -10 10 -5 0 6 -5 17 -10 25
-5 8 -10 11 -10 5z"/>
<path d="M5482 5320 c0 -14 2 -19 5 -12 2 6 2 18 0 25 -3 6 -5 1 -5 -13z"/>
<path d="M7912 5318 c5 -15 68 -24 68 -10 0 10 -32 22 -58 22 -8 0 -12 -6 -10
-12z"/>
<path d="M5009 5245 c-5 -65 12 -190 28 -204 3 -3 2 8 -2 24 -4 17 -11 80 -14
140 l-6 110 -6 -70z"/>
<path d="M5974 5288 c35 -48 79 -146 73 -162 -10 -27 -21 -18 -45 36 -12 28
-24 49 -27 46 -3 -3 1 -18 9 -34 8 -16 19 -41 25 -56 12 -32 32 -29 51 6 10
20 9 28 -4 48 -9 14 -13 28 -9 31 3 4 1 7 -5 7 -7 0 -12 5 -12 11 0 6 -6 17
-12 24 -30 33 -38 45 -38 55 0 5 -5 10 -11 10 -7 0 -5 -9 5 -22z"/>
<path d="M4381 5268 c0 -9 -4 -25 -7 -35 -5 -17 -5 -17 6 0 6 10 9 25 7 35 -4
15 -5 15 -6 0z"/>
<path d="M5255 5197 c-4 -47 -5 -91 -3 -99 3 -7 8 29 12 81 4 51 5 95 2 98 -2
2 -7 -34 -11 -80z"/>
<path d="M4620 5251 c0 -6 4 -13 10 -16 6 -3 7 1 4 9 -7 18 -14 21 -14 7z"/>
<path d="M5162 5240 c0 -14 2 -19 5 -12 2 6 2 18 0 25 -3 6 -5 1 -5 -13z"/>
<path d="M6147 5253 c-4 -3 -7 -11 -7 -17 0 -6 5 -5 12 2 6 6 9 14 7 17 -3 3
-9 2 -12 -2z"/>
<path d="M5782 5210 c0 -19 2 -27 5 -17 2 9 2 25 0 35 -3 9 -5 1 -5 -18z"/>
<path d="M5621 5214 c0 -11 3 -14 6 -6 3 7 2 16 -1 19 -3 4 -6 -2 -5 -13z"/>
<path d="M5840 5178 c0 -10 39 -79 55 -98 7 -8 15 -27 19 -42 6 -26 7 -27 26
-11 19 17 19 18 1 24 -10 4 -37 36 -60 71 -22 34 -41 60 -41 56z"/>
<path d="M5791 5154 c0 -11 3 -14 6 -6 3 7 2 16 -1 19 -3 4 -6 -2 -5 -13z"/>
<path d="M4527 5133 c-4 -3 -7 -13 -7 -22 1 -13 3 -13 11 2 11 19 8 33 -4 20z"/>
<path d="M5143 5070 c0 -41 2 -58 4 -37 2 20 2 54 0 75 -2 20 -4 3 -4 -38z"/>
<path d="M8600 5120 c-38 -38 -13 -100 40 -100 60 0 78 84 24 109 -34 15 -41
14 -64 -9z"/>
<path d="M4911 5110 c-1 -27 20 -90 29 -90 13 0 13 -3 -10 55 -10 28 -19 43
-19 35z"/>
<path d="M4642 5090 c0 -14 2 -19 5 -12 2 6 2 18 0 25 -3 6 -5 1 -5 -13z"/>
<path d="M5770 5081 c0 -5 5 -13 10 -16 6 -3 10 -2 10 4 0 5 -4 13 -10 16 -5
3 -10 2 -10 -4z"/>
<path d="M5610 5070 c0 -5 5 -10 11 -10 5 0 7 5 4 10 -3 6 -8 10 -11 10 -2 0
-4 -4 -4 -10z"/>
<path d="M4498 5025 c-9 -28 -29 -84 -46 -125 -48 -118 -64 -174 -60 -221 3
-40 5 -44 27 -41 33 3 36 8 17 27 -31 31 -18 126 34 250 34 81 51 136 47 147
-2 7 -11 -10 -19 -37z"/>
<path d="M8438 5059 c-22 -13 -24 -62 -2 -83 22 -22 50 -20 68 6 21 29 20 51
-2 71 -21 19 -39 21 -64 6z"/>
<path d="M5806 5013 c9 -21 21 -50 27 -65 12 -30 22 -35 33 -17 3 6 -8 30 -25
54 -17 24 -31 48 -31 54 0 6 -5 11 -10 11 -6 0 -3 -16 6 -37z"/>
<path d="M4741 5024 c0 -11 3 -14 6 -6 3 7 2 16 -1 19 -3 4 -6 -2 -5 -13z"/>
<path d="M3385 5010 c3 -5 8 -10 11 -10 2 0 4 5 4 10 0 6 -5 10 -11 10 -5 0
-7 -4 -4 -10z"/>
<path d="M5041 5013 c-1 -18 41 -113 50 -113 4 0 -3 21 -15 48 -13 26 -26 54
-29 62 -3 9 -6 10 -6 3z"/>
<path d="M5660 5000 c6 -11 13 -20 16 -20 2 0 0 9 -6 20 -6 11 -13 20 -16 20
-2 0 0 -9 6 -20z"/>
<path d="M8193 4990 c-37 -15 -65 -69 -58 -110 10 -53 40 -80 91 -80 64 0 98
33 98 95 1 41 -4 51 -32 76 -33 30 -60 35 -99 19z"/>
<path d="M4750 4980 c0 -5 5 -10 11 -10 5 0 7 5 4 10 -3 6 -8 10 -11 10 -2 0
-4 -4 -4 -10z"/>
<path d="M5876 4975 c4 -8 7 -15 9 -15 2 0 5 7 9 15 3 9 0 15 -9 15 -9 0 -12
-6 -9 -15z"/>
<path d="M4111 4964 c0 -11 3 -14 6 -6 3 7 2 16 -1 19 -3 4 -6 -2 -5 -13z"/>
<path d="M5152 4960 c0 -14 2 -19 5 -12 2 6 2 18 0 25 -3 6 -5 1 -5 -13z"/>
<path d="M4772 4940 c0 -14 2 -19 5 -12 2 6 2 18 0 25 -3 6 -5 1 -5 -13z"/>
<path d="M4625 4939 c-4 -6 -5 -12 -2 -15 2 -3 7 2 10 11 7 17 1 20 -8 4z"/>
<path d="M4606 4883 c-6 -14 -5 -15 5 -6 7 7 10 15 7 18 -3 3 -9 -2 -12 -12z"/>
<path d="M8481 4849 c-1 -27 25 -59 49 -59 7 0 1 9 -13 20 -14 11 -28 30 -30
43 -4 20 -4 19 -6 -4z"/>
<path d="M4311 4834 c0 -11 3 -14 6 -6 3 7 2 16 -1 19 -3 4 -6 -2 -5 -13z"/>
<path d="M4591 4834 c0 -11 3 -14 6 -6 3 7 2 16 -1 19 -3 4 -6 -2 -5 -13z"/>
<path d="M4301 4784 c0 -11 3 -14 6 -6 3 7 2 16 -1 19 -3 4 -6 -2 -5 -13z"/>
<path d="M4570 4764 c0 -8 5 -12 10 -9 6 3 10 10 10 16 0 5 -4 9 -10 9 -5 0
-10 -7 -10 -16z"/>
<path d="M4652 4640 c0 -14 2 -19 5 -12 2 6 2 18 0 25 -3 6 -5 1 -5 -13z"/>
<path d="M5090 4341 c0 -6 4 -13 10 -16 6 -3 7 1 4 9 -7 18 -14 21 -14 7z"/>
<path d="M3368 4273 c-26 -14 -45 -30 -42 -34 4 -7 94 47 94 57 0 6 -1 6 -52
-23z"/>
<path d="M3295 4220 c-3 -5 -2 -10 4 -10 5 0 13 5 16 10 3 6 2 10 -4 10 -5 0
-13 -4 -16 -10z"/>
<path d="M3408 4214 c-16 -8 -28 -19 -28 -25 0 -6 7 -6 19 1 29 15 39 12 17
-5 -22 -17 -17 -29 7 -19 10 3 15 17 15 35 -1 16 -1 29 -2 29 -1 -1 -13 -8
-28 -16z"/>
<path d="M3270 4200 c0 -5 5 -10 11 -10 5 0 7 5 4 10 -3 6 -8 10 -11 10 -2 0
-4 -4 -4 -10z"/>
<path d="M3224 4175 c-4 -8 -9 -13 -13 -11 -4 3 -13 1 -21 -4 -11 -7 -8 -8 10
-6 33 3 60 16 60 27 0 15 -30 10 -36 -6z"/>
<path d="M3358 4184 c-11 -10 -10 -66 1 -83 7 -11 11 -10 20 7 13 25 14 52 2
52 -5 0 -11 7 -13 16 -2 9 -6 12 -10 8z"/>
<path d="M3153 4123 c-13 -8 -23 -21 -23 -29 0 -7 -5 -16 -12 -20 -8 -5 -9 -2
-5 10 7 19 -4 15 -35 -12 -19 -16 -15 -32 9 -32 13 0 14 2 2 17 -12 15 -12 16
7 11 15 -4 33 4 58 27 49 43 48 63 -1 28z"/>
<path d="M3307 4133 c-12 -12 -7 -22 8 -17 8 4 15 10 15 15 0 11 -14 12 -23 2z"/>
<path d="M3230 4079 c-47 -40 -52 -44 -72 -52 -10 -3 -18 -13 -18 -22 0 -13 3
-13 20 -3 11 7 20 16 20 19 0 4 14 9 30 13 17 3 33 14 37 23 3 10 13 26 21 36
24 27 0 19 -38 -14z"/>
<path d="M4378 4093 c-2 -5 -1 -26 3 -48 l6 -40 2 48 c1 44 -3 57 -11 40z"/>
<path d="M7291 4084 c0 -11 3 -14 6 -6 3 7 2 16 -1 19 -3 4 -6 -2 -5 -13z"/>
<path d="M3280 4074 c0 -8 5 -12 10 -9 6 3 10 10 10 16 0 5 -4 9 -10 9 -5 0
-10 -7 -10 -16z"/>
<path d="M3328 4083 c7 -3 16 -2 19 1 4 3 -2 6 -13 5 -11 0 -14 -3 -6 -6z"/>
<path d="M3336 4071 c-25 -5 -51 -31 -31 -31 10 0 65 30 65 35 0 3 -1 4 -2 4
-2 -1 -16 -4 -32 -8z"/>
<path d="M3040 4041 c0 -10 19 -25 25 -20 1 2 -3 10 -11 17 -8 7 -14 8 -14 3z"/>
<path d="M4400 3997 c0 -20 4 -38 9 -42 6 -3 7 10 4 32 -8 50 -13 55 -13 10z"/>
<path d="M3074 3960 c-42 -34 -54 -61 -23 -53 10 3 17 9 14 13 -3 5 3 6 12 4
25 -6 40 7 48 39 9 35 -3 34 -51 -3z m36 -5 c-14 -17 -30 -20 -30 -5 0 6 7 10
15 10 8 0 15 5 15 12 0 6 3 8 6 5 4 -4 1 -13 -6 -22z"/>
<path d="M3262 3902 c-13 -4 -24 -11 -25 -17 -2 -12 76 -18 113 -9 23 6 24 7
5 14 -27 12 -56 11 -30 0 16 -7 17 -9 3 -9 -25 -1 -49 10 -42 20 3 5 4 9 2 8
-2 -1 -13 -4 -26 -7z m15 -18 c-3 -3 -12 -4 -19 -1 -8 3 -5 6 6 6 11 1 17 -2
13 -5z"/>
<path d="M4400 3870 c0 -5 5 -10 11 -10 5 0 7 5 4 10 -3 6 -8 10 -11 10 -2 0
-4 -4 -4 -10z"/>
<path d="M4378 3843 c-22 -5 -24 -23 -3 -23 8 0 15 5 15 11 0 5 4 8 9 4 5 -3
12 -1 16 5 6 10 -6 11 -37 3z"/>
<path d="M6896 3815 c-8 -22 -8 -22 9 -22 17 0 18 6 6 25 -7 11 -10 10 -15 -3z"/>
<path d="M5520 3790 c0 -5 7 -7 15 -4 8 4 15 8 15 10 0 2 -7 4 -15 4 -8 0 -15
-4 -15 -10z"/>
<path d="M5572 3764 c10 -10 20 -15 24 -12 3 4 -5 12 -18 18 -22 12 -22 12 -6
-6z"/>
<path d="M6885 3770 c4 -6 11 -8 16 -5 14 9 11 15 -7 15 -8 0 -12 -5 -9 -10z"/>
<path d="M5517 3748 c6 -11 43 -10 43 1 0 5 -11 8 -24 7 -13 0 -22 -4 -19 -8z"/>
<path d="M5291 3694 c0 -11 3 -14 6 -6 3 7 2 16 -1 19 -3 4 -6 -2 -5 -13z"/>
<path d="M5275 3579 c-4 -6 -5 -12 -2 -15 2 -3 7 2 10 11 7 17 1 20 -8 4z"/>
<path d="M5178 3513 c7 -3 16 -2 19 1 4 3 -2 6 -13 5 -11 0 -14 -3 -6 -6z"/>
<path d="M4611 3488 c0 -9 -4 -25 -7 -35 -5 -17 -5 -17 6 0 6 10 9 25 7 35 -4
15 -5 15 -6 0z"/>
<path d="M5306 3484 c-17 -12 -17 -14 -4 -14 9 0 20 5 23 11 11 17 2 18 -19 3z"/>
<path d="M5568 3463 c6 -2 18 -2 25 0 6 3 1 5 -13 5 -14 0 -19 -2 -12 -5z"/>
<path d="M5538 3413 c7 -3 16 -2 19 1 4 3 -2 6 -13 5 -11 0 -14 -3 -6 -6z"/>
<path d="M4593 3390 c3 -11 -3 -38 -14 -60 -24 -49 -24 -51 5 -72 l24 -17 1
84 c1 58 -2 85 -10 85 -6 0 -9 -9 -6 -20z m7 -100 c0 -5 -4 -10 -10 -10 -5 0
-10 5 -10 10 0 6 5 10 10 10 6 0 10 -4 10 -10z"/>
<path d="M5546 3399 c-56 -13 -60 -23 -7 -15 45 7 92 26 61 25 -8 -1 -33 -5
-54 -10z"/>
<path d="M5575 3360 c-16 -11 -25 -20 -19 -20 11 0 64 39 54 40 -3 0 -18 -9
-35 -20z"/>
<path d="M4880 3310 c-17 -5 3 -8 60 -8 47 0 94 3 105 8 26 11 -130 11 -165 0z"/>
<path d="M5558 3293 c6 -2 18 -2 25 0 6 3 1 5 -13 5 -14 0 -19 -2 -12 -5z"/>
<path d="M5018 3273 c7 -3 16 -2 19 1 4 3 -2 6 -13 5 -11 0 -14 -3 -6 -6z"/>
<path d="M4867 3261 c23 -4 63 -4 90 0 38 5 30 6 -42 6 -66 0 -79 -1 -48 -6z"/>
<path d="M5520 3250 c0 -12 24 -12 60 0 21 7 19 8 -17 9 -24 1 -43 -3 -43 -9z"/>
<path d="M5216 3025 c3 -128 1 -222 -4 -211 -6 13 -8 0 -8 -40 0 -86 -23 -458
-33 -539 -8 -66 -7 -84 3 -74 5 4 18 166 36 434 l8 130 -4 -170 c-6 -244 -23
-394 -46 -414 -10 -8 -18 -27 -18 -41 1 -24 1 -24 15 -6 8 11 15 15 15 9 0
-14 38 -24 46 -11 4 6 10 5 16 -3 6 -9 7 12 3 58 -4 39 -9 269 -11 510 -2 241
-8 474 -13 518 -6 58 -7 18 -5 -150z m10 -658 c-4 -122 -3 -204 3 -220 7 -17
7 -28 1 -32 -6 -4 -10 3 -10 14 0 12 -3 21 -7 21 -5 0 -5 44 -2 97 4 54 7 146
8 206 1 59 4 107 8 107 3 0 3 -87 -1 -193z m-23 -242 c4 -8 2 -17 -3 -20 -6
-4 -10 3 -10 14 0 25 6 27 13 6z"/>
<path d="M4913 3203 c9 -2 23 -2 30 0 6 3 -1 5 -18 5 -16 0 -22 -2 -12 -5z"/>
<path d="M4780 3160 c0 -21 45 -30 142 -29 l103 2 -86 7 c-47 5 -102 13 -122
18 -21 6 -37 6 -37 2z"/>
<path d="M4998 3153 c6 -2 18 -2 25 0 6 3 1 5 -13 5 -14 0 -19 -2 -12 -5z"/>
<path d="M4802 3110 c27 -17 109 -23 148 -12 32 9 28 10 -40 11 -41 1 -86 4
-100 7 -21 5 -22 4 -8 -6z"/>
<path d="M5005 3100 c-43 -13 -52 -19 -32 -19 28 -1 97 23 97 33 0 4 -1 5 -2
5 -2 -1 -30 -9 -63 -19z"/>
<path d="M4808 3073 c6 -2 18 -2 25 0 6 3 1 5 -13 5 -14 0 -19 -2 -12 -5z"/>
<path d="M5545 2660 c-15 -7 -10 -9 23 -9 23 -1 42 4 42 9 0 12 -37 12 -65 0z"/>
<path d="M5520 2630 c0 -5 19 -10 42 -10 49 0 47 5 -4 14 -24 4 -38 3 -38 -4z"/>
<path d="M5510 2600 c0 -5 5 -10 11 -10 5 0 7 5 4 10 -3 6 -8 10 -11 10 -2 0
-4 -4 -4 -10z"/>
<path d="M4510 2589 c0 -5 5 -7 10 -4 6 3 10 8 10 11 0 2 -4 4 -10 4 -5 0 -10
-5 -10 -11z"/>
<path d="M4770 2441 c0 -5 -3 -18 -6 -28 -6 -16 -5 -16 9 2 19 23 21 35 7 35
-5 0 -10 -4 -10 -9z"/>
<path d="M4755 2300 c-3 -5 1 -10 10 -10 9 0 13 5 10 10 -3 6 -8 10 -10 10 -2
0 -7 -4 -10 -10z"/>
<path d="M5524 2020 c-5 -5 -45 -15 -89 -21 -44 -6 -100 -20 -125 -31 -93 -41
-133 -63 -137 -78 -2 -8 -9 -23 -14 -33 -13 -24 -6 -32 12 -15 22 21 158 84
229 106 36 11 99 25 140 32 97 16 114 25 64 34 -22 4 -46 9 -54 12 -9 2 -20 0
-26 -6z"/>
<path d="M3954 1979 c-10 -16 29 -51 49 -43 25 9 21 29 -8 42 -32 15 -32 15
-41 1z"/>
<path d="M5040 1918 c-57 -14 -389 -21 -470 -10 -73 9 -90 8 -77 -4 13 -13
403 -17 485 -5 102 15 124 19 129 25 7 7 -25 4 -67 -6z"/>
<path d="M5655 1890 c-91 -19 -226 -81 -310 -144 -49 -37 -72 -60 -110 -111
-52 -71 -85 -106 -85 -91 0 8 5 18 10 21 13 8 13 55 0 55 -6 0 -13 -13 -16
-30 -4 -16 -10 -30 -15 -30 -15 0 -10 -30 6 -36 8 -4 12 -11 9 -16 -4 -6 -9
-6 -14 2 -5 7 -13 -4 -21 -31 -13 -42 -16 -44 -52 -43 -30 1 -37 -2 -37 -17 0
-21 -15 -25 -25 -8 -4 6 -35 24 -69 39 -33 16 -57 30 -52 30 15 0 -62 70 -78
70 -8 0 -40 22 -71 49 -68 59 -122 77 -191 63 -30 -7 -56 -7 -72 -1 -13 5 -58
8 -98 6 -41 -2 -74 -1 -74 2 0 2 12 18 27 33 15 15 21 28 15 28 -7 0 -12 -4
-12 -9 0 -5 -9 -7 -20 -4 -15 4 -20 0 -21 -13 0 -11 -3 -14 -6 -6 -7 19 -25
14 -63 -18 -19 -17 -40 -30 -48 -30 -24 0 -90 -39 -113 -68 l-24 -28 -66 48
c-74 54 -161 93 -231 103 -26 4 -46 11 -43 15 5 9 -57 5 -124 -7 -41 -8 -50
-15 -105 -89 -34 -44 -70 -96 -80 -115 -15 -27 -20 -30 -24 -16 -5 24 31 91
80 149 22 27 35 48 30 48 -13 0 -58 -51 -117 -134 -43 -61 -47 -71 -43 -111 5
-39 2 -47 -24 -72 -20 -19 -28 -36 -26 -53 3 -21 8 -25 37 -26 43 0 61 -34 33
-62 -68 -68 -70 -115 -6 -171 86 -76 230 -113 441 -115 88 -1 143 -5 144 -11
5 -77 32 -107 106 -121 12 -2 69 -15 125 -28 240 -57 336 -43 532 75 75 45
105 58 111 49 10 -16 -1 -27 -75 -75 -160 -103 -247 -128 -440 -129 -179 0
-292 34 -385 115 -29 25 -35 38 -35 69 l0 39 -32 -10 c-51 -14 -268 -11 -321
5 -26 8 -47 12 -47 11 0 -10 -81 31 -123 63 -50 36 -91 91 -103 136 -5 20 1
35 20 61 21 28 24 35 11 35 -9 0 -27 -11 -40 -24 -26 -26 -36 -82 -39 -220 -1
-83 0 -87 28 -111 16 -13 37 -27 47 -30 11 -4 19 -12 19 -20 0 -17 67 -48 91
-42 10 3 19 2 19 -2 0 -20 172 -51 279 -51 41 0 76 -2 78 -4 3 -3 16 0 30 5
24 9 25 9 18 -30 -12 -70 34 -122 110 -126 22 -1 51 -8 65 -15 24 -14 81 -23
233 -36 53 -5 72 -3 92 10 20 13 30 14 47 5 37 -20 131 -7 171 24 21 16 42 24
51 21 33 -13 83 7 122 46 21 22 47 40 57 40 30 0 57 19 68 47 6 17 15 24 27
21 24 -7 40 6 81 63 18 26 42 52 55 58 24 14 76 90 76 114 0 8 12 33 26 55
l26 40 32 -19 c17 -10 52 -22 78 -25 29 -4 45 -11 41 -17 -3 -5 -1 -7 4 -4 6
4 24 0 41 -8 16 -9 61 -17 98 -19 38 -2 77 -7 86 -11 9 -4 54 -8 100 -10 46
-2 104 -7 129 -10 30 -5 57 -2 80 7 19 8 63 16 99 17 36 1 79 9 95 17 17 9 49
17 71 19 38 3 102 28 114 44 3 4 24 12 47 19 25 8 51 24 65 43 13 16 37 47 55
68 47 55 55 84 43 150 -21 116 -44 150 -107 164 -23 5 -63 -21 -63 -41 0 -13
-60 -65 -108 -95 -134 -83 -335 -110 -505 -66 -45 11 -85 23 -89 25 -19 12 84
168 152 232 39 36 143 91 181 96 13 2 32 7 42 11 22 9 85 -2 114 -21 12 -7 30
-30 39 -51 10 -20 20 -31 22 -25 2 7 15 12 28 12 30 0 31 15 3 31 -34 18 -65
57 -120 149 -28 47 -66 100 -85 118 -32 30 -38 32 -102 31 -37 -1 -85 -5 -107
-9z m-1419 -218 c-17 -16 -18 -16 -5 5 7 12 15 20 18 17 3 -2 -3 -12 -13 -22z
m201 -71 c-47 -50 -97 -137 -97 -168 0 -15 9 -18 48 -19 28 0 70 -11 105 -27
51 -23 57 -29 57 -56 0 -37 12 -45 68 -42 48 1 70 13 103 55 19 24 20 32 10
48 -15 25 10 63 42 63 19 0 22 5 22 38 0 43 3 44 34 16 18 -17 22 -29 18 -55
-11 -63 -119 -204 -174 -225 -16 -6 -50 -8 -80 -4 -29 4 -53 4 -53 0 0 -7 10
-20 66 -83 22 -26 62 -77 88 -114 l47 -68 -38 -17 c-21 -10 -40 -21 -43 -24
-3 -3 -45 -26 -95 -50 -86 -42 -93 -44 -195 -47 -87 -3 -123 1 -210 22 -205
51 -250 84 -172 125 16 9 47 10 103 5 90 -8 110 8 35 28 -25 6 -42 16 -40 20
7 11 65 1 121 -19 23 -8 46 -12 52 -9 6 4 24 0 41 -9 28 -14 30 -14 30 2 0 11
-15 27 -35 37 -19 11 -35 22 -35 26 0 5 -18 15 -40 24 -22 9 -40 23 -40 31 0
8 -5 15 -11 15 -11 0 -10 7 5 90 3 14 10 41 16 60 5 19 10 50 10 68 0 27 -3
32 -17 28 -10 -2 -38 -8 -63 -11 -25 -4 -51 -12 -58 -18 -18 -14 -24 -4 -9 17
17 23 76 35 170 36 l77 0 0 38 c1 52 31 113 86 172 32 34 55 50 72 50 24 0 23
-2 -21 -49z m232 -115 c8 -10 8 -16 -3 -25 -18 -15 -46 -3 -46 20 0 22 32 26
49 5z m1596 -18 c60 -27 6 -110 -132 -205 -167 -113 -270 -141 -478 -128 -66
4 -142 9 -168 11 -27 1 -51 5 -53 7 -3 3 -2 16 1 30 6 23 11 25 38 20 18 -3
34 -9 37 -12 6 -7 27 -10 157 -17 86 -6 117 -3 195 16 104 25 127 35 213 92
62 42 135 131 135 167 0 16 5 22 27 30 1 1 14 -4 28 -11z m-2596 -48 c66 -26
88 -40 137 -93 131 -139 169 -195 160 -234 -20 -83 -20 -83 -115 -83 -48 0
-125 8 -172 19 -111 24 -309 90 -327 108 -22 22 3 61 43 69 35 6 132 -15 180
-40 38 -20 56 -5 29 25 -10 11 -32 28 -48 36 -61 32 -91 86 -82 151 l6 44 -42
-7 c-39 -7 -41 -6 -29 9 36 44 140 42 260 -4z"/>
<path d="M5078 1822 c-11 -2 -18 -13 -18 -28 0 -28 1 -28 34 -13 47 22 34 52
-16 41z"/>
<path d="M6072 1665 c6 -14 15 -25 20 -25 11 0 10 7 -2 31 -16 28 -32 23 -18
-6z"/>
<path d="M5996 1503 c-45 -32 -73 -69 -62 -81 3 -3 45 13 93 35 49 22 101 44
117 49 49 15 30 29 -39 29 -57 0 -70 -4 -109 -32z"/>
</g>
</svg>
